<svg width="30" height="30" viewBox="0 0 30 30" fill="none" xmlns="http://www.w3.org/2000/svg">
<path d="M1.18277 20.4222C0.298538 21.611 -0.112946 23.0801 0.0266988 24.5498C0.166343 26.0194 0.847358 27.3869 1.94003 28.3917C3.0327 29.3966 4.46069 29.9686 5.95199 29.9987C7.4433 30.0289 8.89373 29.5152 10.027 28.5555C7.91418 28.1957 5.95285 27.235 4.38235 25.7908C2.81186 24.3465 1.70011 22.4812 1.18277 20.4222Z" fill="#333333"/>
<path d="M5.14519 11.7543C3.59154 13.455 2.75189 15.6782 2.79741 17.9705C2.84294 20.2628 3.77022 22.4515 5.3902 24.0906C7.01018 25.7296 9.20088 26.6955 11.5156 26.7913C13.8304 26.8871 16.0949 26.1056 17.8475 24.6061C14.4842 24.4397 11.3081 23.024 8.95346 20.6416C6.59879 18.2592 5.23884 15.0855 5.14519 11.7543Z" fill="#333333"/>
<path d="M18.511 0C20.7821 6.88513e-06 23.0022 0.666121 24.891 1.91419C26.7797 3.16227 28.2523 4.93631 29.1227 7.0122C29.9931 9.08809 30.2223 11.3727 29.7813 13.5774C29.3403 15.7822 28.2488 17.8081 26.6449 19.3993C25.041 20.9905 22.9965 22.0755 20.7698 22.5174C18.543 22.9593 16.2338 22.7381 14.134 21.8819C12.0342 21.0257 10.2379 19.5728 8.97206 17.7067C7.70622 15.8407 7.02763 13.6453 7.02201 11.3978C7.01827 9.90234 7.31268 8.42085 7.88838 7.03817C8.46408 5.65549 9.30976 4.39879 10.377 3.34004C11.4442 2.28129 12.712 1.44129 14.1078 0.868148C15.5035 0.29501 16.9998 -4.58117e-06 18.511 0Z" fill="#333333"/>
</svg>
