<svg width="30" height="31" viewBox="0 0 30 31" fill="none" xmlns="http://www.w3.org/2000/svg">
<path d="M0 6.41118C0 4.71083 0.65848 3.08012 1.83058 1.87779C3.00269 0.675461 4.5924 0 6.25 0H23.75C25.4076 0 26.9973 0.675461 28.1694 1.87779C29.3415 3.08012 30 4.71083 30 6.41118V24.3625C30 26.0628 29.3415 27.6935 28.1694 28.8959C26.9973 30.0982 25.4076 30.7736 23.75 30.7736H6.25C4.5924 30.7736 3.00269 30.0982 1.83058 28.8959C0.65848 27.6935 0 26.0628 0 24.3625V6.41118ZM13.75 10.2579C13.4185 10.2579 13.1005 10.393 12.8661 10.6334C12.6317 10.8739 12.5 11.2 12.5 11.5401V21.798C12.5 22.1381 12.3683 22.4642 12.1339 22.7047C11.8995 22.9451 11.5815 23.0802 11.25 23.0802H8.75C8.41848 23.0802 8.10054 23.2153 7.86612 23.4558C7.6317 23.6963 7.5 24.0224 7.5 24.3625C7.5 24.7025 7.6317 25.0287 7.86612 25.2691C8.10054 25.5096 8.41848 25.6447 8.75 25.6447H11.25C12.2446 25.6447 13.1984 25.2394 13.9017 24.518C14.6049 23.7966 15 22.8182 15 21.798V11.5401C15 11.2 14.8683 10.8739 14.6339 10.6334C14.3995 10.393 14.0815 10.2579 13.75 10.2579ZM16.25 14.1046V15.3868C16.25 16.407 16.6451 17.3855 17.3483 18.1069C18.0516 18.8282 19.0054 19.2335 20 19.2335H21.25C21.5815 19.2335 21.8995 19.3686 22.1339 19.6091C22.3683 19.8495 22.5 20.1757 22.5 20.5158V21.798C22.5 22.1381 22.3683 22.4642 22.1339 22.7047C21.8995 22.9451 21.5815 23.0802 21.25 23.0802H17.5C17.1685 23.0802 16.8505 23.2153 16.6161 23.4558C16.3817 23.6963 16.25 24.0224 16.25 24.3625C16.25 24.7025 16.3817 25.0287 16.6161 25.2691C16.8505 25.5096 17.1685 25.6447 17.5 25.6447H21.25C22.2446 25.6447 23.1984 25.2394 23.9017 24.518C24.6049 23.7966 25 22.8182 25 21.798V20.5158C25 19.4956 24.6049 18.5171 23.9017 17.7957C23.1984 17.0743 22.2446 16.6691 21.25 16.6691H20C19.6685 16.6691 19.3505 16.534 19.1161 16.2935C18.8817 16.053 18.75 15.7269 18.75 15.3868V14.1046C18.75 13.7645 18.8817 13.4384 19.1161 13.1979C19.3505 12.9574 19.6685 12.8224 20 12.8224H23.75C24.0815 12.8224 24.3995 12.6873 24.6339 12.4468C24.8683 12.2063 25 11.8802 25 11.5401C25 11.2 24.8683 10.8739 24.6339 10.6334C24.3995 10.393 24.0815 10.2579 23.75 10.2579H20C19.0054 10.2579 18.0516 10.6632 17.3483 11.3846C16.6451 12.106 16.25 13.0844 16.25 14.1046Z" fill="#333333"/>
</svg>
