<svg width="82" height="82" viewBox="0 0 82 82" fill="none" xmlns="http://www.w3.org/2000/svg">
<path d="M69.9883 0H12.0117C5.38901 0 0 5.38901 0 12.0117V69.9883C0 76.611 5.38901 82 12.0117 82H69.9883C76.611 82 82 76.611 82 69.9883V12.0117C82 5.38901 76.611 0 69.9883 0ZM28.9883 65.0234H19.3789V31.3906H28.9883V65.0234ZM28.9883 26.5859H19.3789V16.9766H28.9883V26.5859ZM62.6211 65.0234H53.0117V45.8047C53.0117 43.1559 50.8559 41 48.207 41C45.5582 41 43.4023 43.1559 43.4023 45.8047V65.0234H33.793V31.3906H43.4023V33.2018C45.9198 32.4191 47.5551 31.3906 50.6094 31.3906C57.1264 31.3975 62.6211 37.2438 62.6211 44.1531V65.0234Z" fill="#161084"/>
</svg>
