<svg width="30" height="30" viewBox="0 0 30 30" fill="none" xmlns="http://www.w3.org/2000/svg">
<path d="M5 3.33333V20H11.25V13.3333C11.25 12.4493 11.5134 11.6014 11.9822 10.9763C12.4511 10.3512 13.087 10 13.75 10H20C20.663 10 21.2989 10.3512 21.7678 10.9763C22.2366 11.6014 22.5 12.4493 22.5 13.3333V20H25V3.33333H5ZM0 26.6667V23.3333H5C4.33696 23.3333 3.70107 22.9821 3.23223 22.357C2.76339 21.7319 2.5 20.8841 2.5 20V3.33333C2.5 2.44928 2.76339 1.60143 3.23223 0.976311C3.70107 0.351189 4.33696 0 5 0H25C25.663 0 26.2989 0.351189 26.7678 0.976311C27.2366 1.60143 27.5 2.44928 27.5 3.33333V20C27.5 20.8841 27.2366 21.7319 26.7678 22.357C26.2989 22.9821 25.663 23.3333 25 23.3333H30V26.6667H22.5C22.5 27.5507 22.2366 28.3986 21.7678 29.0237C21.2989 29.6488 20.663 30 20 30H13.75C13.087 30 12.4511 29.6488 11.9822 29.0237C11.5134 28.3986 11.25 27.5507 11.25 26.6667H0ZM14.375 26.6667C14.2092 26.6667 14.0503 26.7545 13.9331 26.9107C13.8158 27.067 13.75 27.279 13.75 27.5C13.75 27.721 13.8158 27.933 13.9331 28.0893C14.0503 28.2455 14.2092 28.3333 14.375 28.3333C14.5408 28.3333 14.6997 28.2455 14.8169 28.0893C14.9342 27.933 15 27.721 15 27.5C15 27.279 14.9342 27.067 14.8169 26.9107C14.6997 26.7545 14.5408 26.6667 14.375 26.6667ZM19.375 26.6667C19.2092 26.6667 19.0503 26.7545 18.9331 26.9107C18.8158 27.067 18.75 27.279 18.75 27.5C18.75 27.721 18.8158 27.933 18.9331 28.0893C19.0503 28.2455 19.2092 28.3333 19.375 28.3333C19.5408 28.3333 19.6997 28.2455 19.8169 28.0893C19.9342 27.933 20 27.721 20 27.5C20 27.279 19.9342 27.067 19.8169 26.9107C19.6997 26.7545 19.5408 26.6667 19.375 26.6667ZM16.25 26.6667V28.3333H17.5V26.6667H16.25ZM13.75 13.3333V25H20V13.3333H13.75Z" fill="#333333"/>
</svg>
