<svg width="30" height="30" viewBox="0 0 30 30" fill="none" xmlns="http://www.w3.org/2000/svg">
<path d="M15.0211 0C13.7583 0 12.5472 0.447438 11.6543 1.24388C10.7613 2.04033 10.2597 3.12054 10.2597 4.24688C10.2597 5.37322 10.7613 6.45343 11.6543 7.24988C12.5472 8.04632 13.7583 8.49376 15.0211 8.49376C16.2839 8.49376 17.495 8.04632 18.3879 7.24988C19.2808 6.45343 19.7825 5.37322 19.7825 4.24688C19.7825 3.12054 19.2808 2.04033 18.3879 1.24388C17.495 0.447438 16.2839 0 15.0211 0ZM4.11852 5.33597C3.36337 5.08167 2.52588 5.10534 1.7903 5.4018C1.05471 5.69825 0.481294 6.2432 0.196181 6.91675C-0.0889316 7.5903 -0.0623819 8.33729 0.269989 8.99338C0.60236 9.64948 1.21333 10.1609 1.96848 10.4152L8.67254 12.718V17.248L5.04118 26.1759C4.77046 26.8911 4.82336 27.6722 5.18862 28.3531C5.55387 29.0341 6.20264 29.561 6.99685 29.8217C7.79105 30.0824 8.66799 30.0564 9.441 29.7491C10.214 29.4419 10.8221 28.8777 11.1358 28.1766L14.3354 20.5511C14.3893 20.4267 14.4841 20.3197 14.6075 20.2443C14.7308 20.1689 14.8768 20.1285 15.0264 20.1285C15.1759 20.1285 15.322 20.1689 15.4453 20.2443C15.5686 20.3197 15.6634 20.4267 15.7173 20.5511L18.9212 28.1294C19.2282 28.8357 19.8342 29.406 20.6085 29.7173C21.3827 30.0286 22.2632 30.0559 23.0598 29.7933C23.8564 29.5307 24.5053 28.9992 24.8665 28.3136C25.2277 27.628 25.2722 26.8433 24.9904 26.1287L21.3696 17.2272V12.7123L28.0229 10.4605C28.7778 10.2097 29.39 9.70174 29.725 9.0483C30.0599 8.39486 30.0901 7.64951 29.809 6.97621C29.5278 6.3029 28.9582 5.75681 28.2256 5.45805C27.493 5.1593 26.6574 5.13236 25.9025 5.38316L21.7802 6.72894C21.5349 6.80884 21.3314 6.96683 21.2088 7.17251C20.6119 8.17832 19.7182 9.01955 18.6243 9.60534C17.5304 10.1911 16.2779 10.4992 15.002 10.4963C13.7261 10.4934 12.4753 10.1796 11.3848 9.5888C10.2943 8.99802 9.40545 8.15272 8.81433 7.14419C8.69258 6.93709 8.48897 6.77768 8.24296 6.69686L4.11852 5.33786V5.33597Z" fill="#333333"/>
</svg>
