<svg width="83" height="82" viewBox="0 0 83 82" fill="none" xmlns="http://www.w3.org/2000/svg">
<path d="M41.6419 0.470459C19.1347 0.470459 0.882324 19.1837 0.882324 42.2683C0.882324 60.7318 12.5614 76.3956 28.7654 81.9274C30.8036 82.3125 31.5476 81.0219 31.5476 79.9135C31.5476 78.9195 31.5119 76.2915 31.4915 72.8049C20.1538 75.3288 17.7589 67.2003 17.7589 67.2003C15.9092 62.3711 13.234 61.0857 13.234 61.0857C9.52954 58.4941 13.5092 58.5462 13.5092 58.5462C17.6009 58.8428 19.7513 62.855 19.7513 62.855C23.3895 69.2402 29.2953 67.398 31.6189 66.326C31.9858 63.6252 33.0406 61.783 34.2075 60.737C25.1577 59.6806 15.6391 56.0951 15.6391 40.0827C15.6391 35.5188 17.229 31.7876 19.8379 28.863C19.415 27.8066 18.0188 23.555 20.2354 17.8047C20.2354 17.8047 23.6596 16.6807 31.4457 22.0875C34.6966 21.1612 38.182 20.6981 41.6521 20.6825C45.112 20.7033 48.6025 21.1612 51.8586 22.0927C59.6395 16.6859 63.0587 17.8099 63.0587 17.8099C65.2804 23.5654 63.8842 27.8118 63.4663 28.8682C66.0804 31.7928 67.6549 35.5241 67.6549 40.0879C67.6549 56.142 58.1262 59.6754 49.0458 60.711C50.5083 62.0016 51.8127 64.5515 51.8127 68.4492C51.8127 74.0382 51.7618 78.5448 51.7618 79.9135C51.7618 81.0323 52.4955 82.3333 54.5643 81.9222C70.7428 76.3852 82.4117 60.7266 82.4117 42.2683C82.4117 19.1837 64.1593 0.470459 41.6419 0.470459Z" fill="#161084"/>
</svg>
