<svg width="25" height="28" viewBox="0 0 25 28" fill="none" xmlns="http://www.w3.org/2000/svg">
<path d="M18.7231 9.15736C20.3549 9.12163 21.9035 8.62357 23.0404 7.7688C24.1774 6.91403 24.8133 5.76977 24.8133 4.57868C24.8133 3.38759 24.1774 2.24333 23.0404 1.38856C21.9035 0.53379 20.3549 0.0357306 18.7231 0H6.16979C4.53796 0.0357306 2.98939 0.53379 1.85244 1.38856C0.715493 2.24333 0.0795959 3.38759 0.0795959 4.57868C0.0795959 5.76977 0.715493 6.91403 1.85244 7.7688C2.98939 8.62357 4.53796 9.12163 6.16979 9.15736C4.5237 9.17817 2.95467 9.66985 1.80066 10.5265C0.646647 11.3832 0 12.5363 0 13.7374C0 14.9386 0.646647 16.0917 1.80066 16.9483C2.95467 17.805 4.5237 18.2967 6.16979 18.3175C4.53174 18.3468 2.97428 18.8421 1.82994 19.6977C0.685593 20.5533 0.0450396 21.7014 0.0450396 22.8968C0.0450396 24.0923 0.685593 25.2404 1.82994 26.096C2.97428 26.9516 4.53174 27.4469 6.16979 27.4762C7.83448 27.4755 9.43067 26.9926 10.6076 26.1336C11.7846 25.2747 12.4459 24.11 12.4464 22.8955V9.15736H18.7231Z" fill="#333333"/>
<path d="M18.7234 18.3161C22.1899 18.3161 25.0001 16.2658 25.0001 13.7367C25.0001 11.2076 22.1899 9.15732 18.7234 9.15732C15.2569 9.15732 12.4468 11.2076 12.4468 13.7367C12.4468 16.2658 15.2569 18.3161 18.7234 18.3161Z" fill="#333333"/>
</svg>
