<svg width="30" height="31" viewBox="0 0 30 31" fill="none" xmlns="http://www.w3.org/2000/svg">
<path d="M19.5737 19.2287C19.5737 22.1419 16.9138 22.0746 16.6326 22.0746H11.2158V16.4632H16.6326C19.4826 16.4632 19.5737 18.6545 19.5737 19.2287ZM16.2154 14.2053C16.2603 14.2053 18.7895 14.274 18.7895 11.7112C18.7895 10.6451 18.5545 9.2472 16.2154 9.2472H11.2158V14.2053H16.2154ZM30 5.12917V25.6445C29.9961 27.0036 29.4681 28.3059 28.5312 29.2669C27.5943 30.228 26.3247 30.7697 24.9998 30.7736H5.00022C3.67528 30.7697 2.40571 30.228 1.46882 29.2669C0.531942 28.3059 0.00388653 27.0036 0 25.6445L0 5.12917C0.00388653 3.77005 0.531942 2.46775 1.46882 1.5067C2.40571 0.54566 3.67528 0.00398676 5.00022 0H24.9998C26.3247 0.00398676 27.5943 0.54566 28.5312 1.5067C29.4681 2.46775 29.9961 3.77005 30 5.12917ZM22.6373 19.6361C22.6373 18.1544 22.192 15.632 19.3527 15.0097V14.9596C20.8868 14.2878 21.8531 13.019 21.8531 11.1376C21.8531 10.6567 21.9871 6.68777 16.6567 6.68777H8.15223V24.6388C16.7391 24.6388 17.5185 24.7542 19.1076 24.2466C20.0592 23.943 22.6373 23.0115 22.6373 19.6361Z" fill="#333333"/>
</svg>
