<svg width="30" height="31" viewBox="0 0 30 31" fill="none" xmlns="http://www.w3.org/2000/svg">
<path d="M29.4335 14.0133L16.3329 0.581929C16.1535 0.397466 15.9404 0.251115 15.7058 0.151258C15.4712 0.0514006 15.2196 0 14.9656 0C14.7116 0 14.46 0.0514006 14.2254 0.151258C13.9908 0.251115 13.7777 0.397466 13.5983 0.581929L10.8833 3.37128L14.3351 6.90676C14.7406 6.76568 15.1765 6.74397 15.5935 6.84406C16.0104 6.94416 16.3916 7.16208 16.6939 7.47309C17.3389 8.13461 17.5189 9.08555 17.2461 9.90668L20.5667 13.3172C20.9735 13.1719 21.4121 13.1474 21.8319 13.2466C22.2517 13.3457 22.6356 13.5645 22.9395 13.8777C23.8432 14.7989 23.8432 16.2911 22.9395 17.2132C22.7264 17.4322 22.4733 17.6059 22.1947 17.7244C21.9161 17.843 21.6174 17.904 21.3157 17.904C21.0141 17.904 20.7154 17.843 20.4368 17.7244C20.1582 17.6059 19.9051 17.4322 19.692 17.2132C19.372 16.8848 19.1532 16.4672 19.0629 16.0123C18.9725 15.5573 19.0146 15.0852 19.1839 14.6546L16.0733 11.4797V19.8478C16.2926 19.9583 16.5026 20.1083 16.6836 20.2939C17.577 21.2208 17.577 22.7073 16.6836 23.6294C16.2505 24.0718 15.6641 24.3202 15.0528 24.3202C14.4415 24.3202 13.8551 24.0718 13.422 23.6294C13.154 23.3544 12.9564 23.0158 12.8469 22.6436C12.7373 22.2714 12.7192 21.8771 12.794 21.496C12.8689 21.1149 13.0345 20.7586 13.2761 20.459C13.5176 20.1593 13.8277 19.9256 14.1786 19.7785V11.3307C13.8987 11.2088 13.6436 11.0339 13.4267 10.8153C13.1041 10.4853 12.8848 10.0641 12.797 9.60554C12.7091 9.147 12.7567 8.672 12.9336 8.24134L9.54452 4.74624L0.560478 13.9556C0.201327 14.3294 0 14.8332 0 15.358C0 15.8828 0.201327 16.3865 0.560478 16.7603L13.6611 30.1917C13.8405 30.3762 14.0536 30.5225 14.2882 30.6224C14.5229 30.7222 14.7744 30.7736 15.0284 30.7736C15.2824 30.7736 15.534 30.7222 15.7686 30.6224C16.0032 30.5225 16.2164 30.3762 16.3958 30.1917L29.4326 16.8209C29.6125 16.6369 29.7552 16.4183 29.8525 16.1777C29.9499 15.9371 30 15.6791 30 15.4186C30 15.158 29.9499 14.9 29.8525 14.6594C29.7552 14.4188 29.6125 14.2002 29.4326 14.0162L29.4335 14.0133Z" fill="#333333"/>
</svg>
