<svg width="26" height="22" viewBox="0 0 26 22" fill="none" xmlns="http://www.w3.org/2000/svg">
<path d="M21.9375 13.75H20.3125C20.097 13.75 19.8903 13.8224 19.738 13.9514C19.5856 14.0803 19.5 14.2552 19.5 14.4375V19.25H3.25V5.5H10.5625C10.778 5.5 10.9847 5.42757 11.137 5.29864C11.2894 5.1697 11.375 4.99484 11.375 4.8125V3.4375C11.375 3.25516 11.2894 3.0803 11.137 2.95136C10.9847 2.82243 10.778 2.75 10.5625 2.75H2.4375C1.79103 2.75 1.17105 2.9673 0.713927 3.35409C0.256807 3.74089 0 4.26549 0 4.8125L0 19.9375C0 20.4845 0.256807 21.0091 0.713927 21.3959C1.17105 21.7827 1.79103 22 2.4375 22H20.3125C20.959 22 21.579 21.7827 22.0361 21.3959C22.4932 21.0091 22.75 20.4845 22.75 19.9375V14.4375C22.75 14.2552 22.6644 14.0803 22.512 13.9514C22.3597 13.8224 22.153 13.75 21.9375 13.75ZM24.7812 0H18.2812C17.1961 0 16.6537 1.11332 17.418 1.76172L19.2324 3.29699L6.85547 13.7659C6.74185 13.8617 6.6517 13.9755 6.59018 14.1009C6.52867 14.2262 6.49701 14.3606 6.49701 14.4964C6.49701 14.6321 6.52867 14.7665 6.59018 14.8918C6.6517 15.0172 6.74185 15.131 6.85547 15.2268L8.00668 16.1992C8.11991 16.2954 8.25445 16.3716 8.40259 16.4237C8.55073 16.4757 8.70956 16.5025 8.86996 16.5025C9.03036 16.5025 9.18919 16.4757 9.33733 16.4237C9.48547 16.3716 9.62002 16.2954 9.73324 16.1992L22.1041 5.72859L23.918 7.26172C24.6797 7.90625 26 7.45508 26 6.53125V1.03125C26 0.757746 25.8716 0.495443 25.643 0.302046C25.4145 0.108649 25.1045 0 24.7812 0V0Z" fill="#161084"/>
</svg>
