<svg width="30" height="31" viewBox="0 0 30 31" fill="none" xmlns="http://www.w3.org/2000/svg">
<path fill-rule="evenodd" clip-rule="evenodd" d="M15 0C6.71496 0 0 7.06248 0 15.7763C0 22.7455 4.29667 28.6596 10.2582 30.7475C11.0086 30.8899 11.2793 30.4043 11.2793 29.9867C11.2793 29.6118 11.2673 28.6185 11.2628 27.304C7.08943 28.2563 6.20814 25.1877 6.20814 25.1877C5.52837 23.3655 4.54331 22.8799 4.54331 22.8799C3.18227 21.9008 4.64708 21.923 4.64708 21.923C6.154 22.0337 6.94355 23.549 6.94355 23.549C8.28203 25.9596 10.4567 25.2636 11.3079 24.8603C11.4448 23.84 11.8358 23.1441 12.2629 22.7502C8.93323 22.3532 5.43212 20.9992 5.43212 14.9522C5.43212 13.2329 6.01714 11.8219 6.97213 10.7211C6.82023 10.3209 6.30138 8.7154 7.12102 6.54525C7.12102 6.54525 8.37979 6.11976 11.2447 8.16021C12.4683 7.81013 13.7305 7.63143 14.9985 7.62875C16.2666 7.63091 17.5288 7.80962 18.7523 8.16021C21.6187 6.11818 22.876 6.54525 22.876 6.54525C23.6956 8.7154 23.1813 10.3209 23.0249 10.7211C23.9874 11.8219 24.5649 13.2313 24.5649 14.9522C24.5649 21.015 21.0608 22.3469 17.7191 22.7376C18.253 23.2247 18.7342 24.1864 18.7342 25.6575C18.7342 27.7675 18.7162 29.4695 18.7162 29.9867C18.7162 30.409 18.9839 30.8993 19.7493 30.7443C25.7078 28.6533 30 22.7439 30 15.7763C30 7.06248 23.285 0 15 0Z" fill="#333333"/>
</svg>
