<svg width="30" height="31" viewBox="0 0 30 31" fill="none" xmlns="http://www.w3.org/2000/svg">
<path d="M14.9982 0.209167C12.1838 0.209167 9.36939 0.286102 6.74261 0.478437C5.07543 0.58947 3.50267 1.31092 2.31102 2.51129C1.11937 3.71166 0.388172 5.31102 0.250712 7.01784C-0.0494913 11.1338 -0.0870168 15.2113 0.175661 19.3273C0.319509 21.1565 1.13589 22.8613 2.45959 24.0969C3.78329 25.3324 5.51544 26.0062 7.30549 25.9821H11.2457V20.9814H7.30549C6.1422 21.0198 5.12902 20.1736 5.01644 18.9811C4.79129 15.1344 4.82881 11.2877 5.09149 7.44097C5.16654 6.3639 5.9921 5.55609 7.04281 5.47915C9.59454 5.28682 12.2964 5.20988 14.9982 5.20988C17.7 5.20988 20.4019 5.32528 22.9536 5.44069C23.9668 5.51762 24.8299 6.32543 24.9049 7.40251C25.2051 11.2492 25.2051 15.0959 24.98 18.9426C24.8299 20.1351 23.8542 21.0198 22.6909 20.9814H18.7507L11.2457 25.9821V30.9828L18.7507 25.9821H22.6909C26.4059 26.0206 29.5205 23.0971 29.8208 19.3273C30.0834 15.2498 30.0459 11.1338 29.7832 7.0563C29.6458 5.34949 28.9146 3.75013 27.7229 2.54976C26.5313 1.34939 24.9585 0.627937 23.2913 0.516904C20.627 0.286102 17.8126 0.209167 14.9982 0.209167V0.209167ZM8.69393 11.4415C8.24363 11.4415 7.86837 11.8262 7.86837 12.2878V15.2883C7.86837 15.7114 8.09353 16.0961 8.46878 16.2884C10.4952 17.2885 12.7467 17.8271 14.9982 17.904C17.2497 17.8271 19.5013 17.2885 21.5276 16.2884C21.9029 16.0961 22.128 15.7114 22.128 15.2883V12.2878C22.128 12.1724 22.0905 12.0955 22.0155 12.0186C21.9761 11.913 21.9161 11.8168 21.8392 11.7358C21.7624 11.6548 21.6702 11.5908 21.5683 11.5476C21.4664 11.5044 21.357 11.4829 21.2468 11.4845C21.1366 11.4861 21.0278 11.5108 20.9272 11.5569C19.051 12.4032 17.0246 12.8648 14.9607 12.9033C12.8968 12.8648 10.8704 12.3648 8.99414 11.5185C8.90083 11.4705 8.79831 11.4442 8.69393 11.4415Z" fill="#333333"/>
</svg>
