<svg width="82" height="82" viewBox="0 0 82 82" fill="none" xmlns="http://www.w3.org/2000/svg">
<path d="M18.4688 50.8795L60.6113 58.3394L62.3764 51.2429L20.2339 43.7287L18.4688 50.8795Z" fill="#161084"/>
<path d="M17.5354 60.1603H60.6074V67.3859H17.5354V60.1603Z" fill="#161084"/>
<path d="M23.9966 33.8668L63.0165 49.2419L66.6324 42.638L27.592 27.2222L23.9966 33.8668Z" fill="#161084"/>
<path d="M63.0215 49.2468L63.0171 49.2424L63.0127 49.2468H63.0215Z" fill="#161084"/>
<path d="M0.353027 52.8835V81.9997H77.7733V52.8835H69.1598V74.7198H8.96661V52.8835H0.353027Z" fill="#161084"/>
<path d="M34.8115 17.6697L67.8676 41.0177L73.3545 35.4126L40.2985 12.0646L34.8115 17.6697Z" fill="#161084"/>
<path d="M81.8825 29.641L56.1926 0.470459L49.2993 4.83908L74.9892 34.0096L81.8825 29.641Z" fill="#161084"/>
</svg>
