<svg width="82" height="82" viewBox="0 0 82 82" fill="none" xmlns="http://www.w3.org/2000/svg">
<path d="M81.3222 23.9699C81.1312 19.638 80.4305 16.6598 79.4268 14.0791C78.3913 11.3398 76.7984 8.88732 74.7113 6.84856C72.6721 4.77806 70.203 3.1692 67.4949 2.15013C64.8988 1.14661 61.9356 0.446077 57.6028 0.255079C53.2376 0.047905 51.8519 0 40.7806 0C29.7093 0 28.3235 0.047905 23.9745 0.238903C19.6417 0.429901 16.6629 1.13106 14.0824 2.13395C11.342 3.1692 8.88902 4.76189 6.84986 6.84856C4.77897 8.88732 3.17043 11.356 2.15054 14.0636C1.14683 16.6598 0.446162 19.6218 0.255127 23.9538C0.0479142 28.3181 0 29.7036 0 40.7728C0 51.842 0.0479142 53.2275 0.238949 57.5756C0.429983 61.9076 1.13127 64.8858 2.13498 67.4665C3.17043 70.2058 4.77897 72.6583 6.84986 74.697C8.88902 76.7675 11.3582 78.3764 14.0662 79.3955C16.6629 80.399 19.6255 81.0995 23.959 81.2905C28.3073 81.4821 29.6937 81.5294 40.765 81.5294C51.8363 81.5294 53.2221 81.4821 57.5711 81.2905C61.9039 81.0995 64.8827 80.399 67.4632 79.3955C72.9434 77.2771 77.2763 72.9451 79.3951 67.4665C80.3981 64.8703 81.0994 61.9076 81.2905 57.5756C81.4815 53.2275 81.5294 51.842 81.5294 40.7728C81.5294 29.7036 81.5132 28.3181 81.3222 23.9699ZM73.9789 57.2571C73.8034 61.2388 73.1345 63.389 72.5769 64.8224C71.2067 68.3742 68.3872 71.1931 64.8347 72.5631C63.4011 73.1205 61.235 73.7893 57.268 73.9641C52.967 74.1558 51.677 74.203 40.7968 74.203C29.9165 74.203 28.6104 74.1558 24.3249 73.9641C20.3424 73.7893 18.1918 73.1205 16.7581 72.5631C14.9903 71.9098 13.3811 70.8746 12.075 69.5208C10.721 68.1987 9.68551 66.6061 9.03214 64.8385C8.47459 63.4051 7.80566 61.2388 7.6308 57.2733C7.43914 52.973 7.39185 51.6827 7.39185 40.8045C7.39185 29.9263 7.43914 28.6205 7.6308 24.3364C7.80566 20.3547 8.47459 18.2045 9.03214 16.7711C9.68551 15.003 10.721 13.3947 12.0912 12.0882C13.4129 10.7345 15.0059 9.69922 16.7743 9.04659C18.208 8.48915 20.3747 7.82034 24.341 7.6449C28.6421 7.4539 29.9327 7.406 40.8123 7.406C51.7087 7.406 52.9987 7.4539 57.2842 7.6449C61.2667 7.82034 63.4172 8.48915 64.8509 9.04659C66.6188 9.69922 68.2279 10.7345 69.5341 12.0882C70.8881 13.4103 71.9236 15.003 72.5769 16.7711C73.1345 18.2045 73.8034 20.3702 73.9789 24.3364C74.1699 28.6366 74.2178 29.9263 74.2178 40.8045C74.2178 51.6827 74.1699 52.9568 73.9789 57.2571Z" fill="#161084"/>
<path d="M40.7806 19.8288C29.2159 19.8288 19.8328 29.2094 19.8328 40.7726C19.8328 52.3357 29.2159 61.7164 40.7806 61.7164C52.346 61.7164 61.7284 52.3357 61.7284 40.7726C61.7284 29.2094 52.346 19.8288 40.7806 19.8288ZM40.7806 54.3583C33.278 54.3583 27.1923 48.2744 27.1923 40.7726C27.1923 33.2708 33.278 27.1868 40.7806 27.1868C48.2838 27.1868 54.3689 33.2708 54.3689 40.7726C54.3689 48.2744 48.2838 54.3583 40.7806 54.3583Z" fill="#161084"/>
<path d="M67.4476 19.0005C67.4476 21.7006 65.2579 23.89 62.5566 23.89C59.856 23.89 57.6663 21.7006 57.6663 19.0005C57.6663 16.2998 59.856 14.1111 62.5566 14.1111C65.2579 14.1111 67.4476 16.2998 67.4476 19.0005Z" fill="#161084"/>
</svg>
