<svg width="345" height="272" viewBox="0 0 345 272" fill="none" xmlns="http://www.w3.org/2000/svg">
<g id="girl">
<g id="Group">
<path id="Vector" d="M168 271.606C260.785 271.606 336.001 267.406 336.001 262.226C336.001 257.046 260.785 252.847 168 252.847C75.2164 252.847 0 257.046 0 262.226C0 267.406 75.2164 271.606 168 271.606Z" fill="#8FA1AB"/>
<g id="girl-chair">
<g id="chair">
<path id="Vector_2" d="M158.371 6.6968H136.498C131.613 6.6968 127.469 10.2904 126.789 15.1253L107.479 151.033C106.638 156.939 111.223 162.225 117.189 162.225H177.68C183.646 162.225 188.231 156.939 187.39 151.033L168.08 15.1253C167.39 10.2904 163.256 6.6968 158.371 6.6968Z" fill="#1B2349"/>
<path id="Vector_3" d="M127.309 251.836C127.309 255.79 124.106 258.993 120.152 258.993C116.198 258.993 112.995 255.79 112.995 251.836C112.995 247.882 116.198 244.678 120.152 244.678C124.106 244.678 127.309 247.882 127.309 251.836Z" fill="#1B2349"/>
<path id="Vector_4" d="M159.382 251.836C159.382 255.79 156.178 258.993 152.224 258.993C148.27 258.993 145.067 255.79 145.067 251.836C145.067 247.882 148.27 244.678 152.224 244.678C156.178 244.678 159.382 247.882 159.382 251.836Z" fill="#1B2349"/>
<path id="Vector_5" d="M188.531 251.836C188.531 255.79 185.328 258.993 181.374 258.993C177.42 258.993 174.217 255.79 174.217 251.836C174.217 247.882 177.42 244.678 181.374 244.678C185.328 244.678 188.531 247.882 188.531 251.836Z" fill="#1B2349"/>
<g id="Group_2">
<path id="Vector_6" d="M151.694 251.565C150.032 251.565 148.691 250.224 148.691 248.562V177.09H154.697V248.562C154.697 250.224 153.356 251.565 151.694 251.565Z" fill="#D9E4EA"/>
<path id="Vector_7" d="M159.121 168.851H144.186V187.08H159.121V168.851Z" fill="#C5D6DF"/>
</g>
<path id="Vector_8" d="M178.461 175.948H126.518C121.153 175.948 116.798 171.594 116.798 166.229C116.798 160.863 121.153 156.509 126.518 156.509H178.461C183.826 156.509 188.181 160.863 188.181 166.229C188.181 171.594 183.826 175.948 178.461 175.948Z" fill="#1B2349"/>
<path id="Vector_9" d="M174.407 228.242H127.559C122.154 228.242 117.78 232.626 117.78 238.021V250.104C117.78 251.645 119.021 252.887 120.562 252.887C122.104 252.887 123.345 251.645 123.345 250.104V239.263C123.345 236.25 125.788 233.807 128.801 233.807H173.006C176.019 233.807 178.461 236.25 178.461 239.263V250.104C178.461 251.645 179.702 252.887 181.244 252.887H181.274C182.795 252.887 184.037 251.655 184.057 250.134L184.187 238.132C184.247 232.686 179.853 228.242 174.407 228.242Z" fill="#D9E4EA"/>
<g id="Group_3">
<path id="Vector_10" d="M161.874 20.661H133.435C133.115 20.661 133.115 21.1615 133.435 21.1615H161.874C162.195 21.1615 162.195 20.661 161.874 20.661Z" fill="#1B2349"/>
<path id="Vector_11" d="M164.537 33.8344C152.985 34.0346 141.433 34.2348 129.882 34.435C129.561 34.445 129.561 34.9455 129.882 34.9355C141.433 34.7353 152.985 34.5351 164.537 34.3349C164.857 34.3349 164.857 33.8344 164.537 33.8344Z" fill="#1B2349"/>
<path id="Vector_12" d="M164.537 141.814C152.985 142.014 141.433 142.214 129.882 142.415C129.561 142.425 129.561 142.925 129.882 142.915C141.433 142.715 152.985 142.515 164.537 142.314C164.857 142.314 164.857 141.814 164.537 141.814Z" fill="#1B2349"/>
<path id="Vector_13" d="M168.241 48.9497C154.216 49.1499 140.192 49.3501 126.168 49.5503C125.778 49.5604 125.778 50.0609 126.168 50.0508C140.192 49.8506 154.216 49.6505 168.241 49.4502C168.631 49.4402 168.631 48.9397 168.241 48.9497Z" fill="#1B2349"/>
<path id="Vector_14" d="M171.314 65.8369C155.248 66.0371 139.171 66.2373 123.105 66.4375C122.654 66.4475 122.654 66.948 123.105 66.938C139.171 66.7378 155.248 66.5376 171.314 66.3374C171.764 66.3274 171.764 65.8269 171.314 65.8369Z" fill="#1B2349"/>
<path id="Vector_15" d="M171.314 82.2735C155.248 82.4737 139.171 82.6739 123.105 82.8741C122.654 82.8842 122.654 83.3847 123.105 83.3747C139.171 83.1744 155.248 82.9742 171.314 82.774C171.764 82.764 171.764 82.2635 171.314 82.2735Z" fill="#1B2349"/>
<path id="Vector_16" d="M171.314 98.7202C155.248 98.9204 139.171 99.1206 123.105 99.3208C122.654 99.3308 122.654 99.8313 123.105 99.8213C139.171 99.6211 155.248 99.4209 171.314 99.2207C171.764 99.2107 171.764 98.7102 171.314 98.7202Z" fill="#1B2349"/>
<path id="Vector_17" d="M171.314 115.157C155.248 115.357 139.171 115.557 123.105 115.757C122.654 115.767 122.654 116.268 123.105 116.258C139.171 116.058 155.248 115.858 171.314 115.657C171.764 115.647 171.764 115.147 171.314 115.157Z" fill="#1B2349"/>
<path id="Vector_18" d="M171.314 131.594C155.248 131.794 139.171 131.994 123.105 132.194C122.654 132.204 122.654 132.705 123.105 132.695C139.171 132.494 155.248 132.294 171.314 132.094C171.764 132.094 171.764 131.594 171.314 131.594Z" fill="#1B2349"/>
</g>
</g>
<g id="1">
<path id="Vector_19" d="M175.358 26.0765C175.358 30.2707 173.046 33.6642 170.203 33.6642C167.35 33.6642 165.047 30.2607 165.047 26.0765C165.047 21.8822 167.36 18.4888 170.203 18.4888C173.046 18.4788 175.358 21.8822 175.358 26.0765Z" fill="#DD4E50"/>
</g>
<g id="left-arm">
<path id="Vector_20" d="M212.045 99.6611C212.045 99.6611 229.072 96.8182 231.225 107.129C231.225 107.129 232.216 110.632 227.511 104.636C227.511 104.636 225.549 102.924 224.468 103.365C224.468 103.365 229.593 107.609 229.803 109.161C229.913 109.952 227.961 111.803 223.237 104.826C223.237 104.826 228.001 111.743 224.808 112.034L221.275 105.667L222.996 111.723C222.996 111.723 221.435 115.057 219.202 106.918C219.182 106.928 219.162 106.949 219.142 106.959C215.959 107.189 213.336 106.969 210.814 104.836L210.393 104.216L212.045 99.6611Z" fill="#F5D8BC"/>
<path id="Vector_21" d="M167.22 66.6877L167.71 100.572C167.8 106.678 173.186 111.343 179.242 110.552L213.016 106.168L214.367 99.7312L182.465 96.7382L182.876 72.3735C182.996 65.2762 179.522 58.5895 173.636 54.6054C168.841 51.7625 167.14 61.112 167.22 66.6877Z" fill="black"/>
</g>
<path id="Vector_22" d="M150.092 122.684L184.167 123.345L175.418 106.558C177.63 94.0654 178.701 74.7859 179.172 63.154C179.392 57.6985 175.678 53.0939 170.903 52.9037L138.43 51.5923C133.335 51.3821 129.241 56.2671 129.561 62.083C130.813 84.2855 134.947 98.9304 139.792 108.78L134.366 122.374L149.522 122.674C149.562 122.714 149.602 122.755 149.632 122.785L150.092 122.684Z" fill="black"/>
<g id="Group_4">
<path id="Vector_23" d="M144.917 67.3284C145.337 67.8489 145.768 68.3694 146.218 68.8699C146.439 69.1102 146.789 68.7598 146.569 68.5196C144.477 66.1972 142.715 63.6446 141.283 60.8618C141.133 60.5715 140.703 60.8318 140.853 61.1121C141.894 63.1241 143.105 65.006 144.487 66.7878C144.427 66.8279 144.376 66.8779 144.386 66.978C146.038 84.1955 147.56 101.483 144.957 118.68C144.907 118.991 145.388 119.131 145.438 118.811C148.03 101.683 146.559 84.4658 144.917 67.3284Z" fill="#1B2349"/>
<path id="Vector_24" d="M167.77 66.6376C167.77 66.4474 167.59 66.3773 167.45 66.4174C169.072 64.2352 170.133 61.6725 170.523 58.8697C170.563 58.5594 170.083 58.4193 170.043 58.7396C169.412 63.2642 167.03 67.1882 163.276 69.7908C163.015 69.971 163.266 70.4114 163.526 70.2212C164.977 69.2102 166.229 68.019 167.27 66.6676C167.28 85.0863 170.033 103.245 175.478 120.843C175.568 121.153 176.059 121.023 175.959 120.712C170.523 103.155 167.77 85.0162 167.77 66.6376Z" fill="#1B2349"/>
</g>
<path id="Vector_25" d="M147.229 62.8137C147.229 62.8137 157.49 96.0975 142.725 128.631L174.007 127.63C174.007 127.63 159.532 86.2976 162.535 61.5224L147.229 62.8137Z" fill="#DD4E50"/>
<g id="Group_5">
<g id="Group_6">
<path id="Vector_26" d="M160.593 58.6696L159.892 60.8618C158.631 64.7858 153.246 65.2262 151.384 61.5425L150.923 60.6316C149.982 58.7697 149.462 56.7176 149.412 54.6355C149.382 54.3952 149.382 54.135 149.392 53.8947C149.412 52.7936 149.432 51.8026 149.432 51.5924C149.362 50.7115 149.342 49.8106 149.332 48.9397L149.261 44.5252L149.251 44.1348L161.214 45.6964L161.164 51.172V51.8126L161.244 53.6044C161.334 55.3262 161.114 57.0379 160.593 58.6696Z" fill="#F5D8BC"/>
<path id="Vector_27" d="M161.214 45.6964L161.164 51.172C160.453 51.3221 159.722 51.4022 158.961 51.4022C154.407 51.4022 150.553 48.5093 149.261 44.5252L149.251 44.1348L161.214 45.6964Z" fill="#EEB789"/>
<path id="Vector_28" d="M168.851 22.3127C167.12 17.8281 163.916 13.2735 160.373 10.3405C158.851 8.84901 157.23 7.97813 155.548 7.5577C154.627 7.27742 153.716 7.12727 152.845 7.18733C152.244 7.22737 151.654 7.29743 151.073 7.39754C150.493 7.47762 149.912 7.58773 149.321 7.73788C148.471 7.94809 147.65 8.35852 146.859 8.90908C145.377 9.80999 144.096 11.1413 143.095 13.0233C140.613 16.8872 138.931 22.2026 138.641 26.9974C137.8 26.6571 136.979 26.5269 136.298 26.6971C134.016 27.2577 133.836 31.0315 134.897 33.7142C136.248 37.1077 139.071 37.7984 141.644 38.1187C143.135 40.2709 145.087 42.303 147.219 43.9246C149.502 45.8966 152.254 47.1979 155.197 47.4482C155.288 47.4582 155.368 47.4582 155.458 47.4682C155.628 47.4782 155.798 47.5082 155.968 47.5082C156.088 47.5082 156.198 47.4882 156.319 47.4882C156.419 47.4882 156.509 47.4782 156.609 47.4682C156.829 47.4482 157.049 47.4282 157.28 47.3981C157.5 47.3681 157.72 47.318 157.94 47.268C158.03 47.248 158.13 47.2179 158.221 47.1979C158.331 47.1679 158.451 47.1479 158.561 47.1078C158.721 47.0478 158.871 46.9777 159.031 46.9176C159.111 46.8876 159.191 46.8576 159.272 46.8175C162.004 45.6864 164.237 43.6143 165.808 41.0417C167.36 38.8494 168.601 36.3269 169.362 33.8244C171.704 32.7333 169.552 21.7421 168.851 22.3127Z" fill="#F5D8BC"/>
<g id="Group_7">
<g id="Group_8">
<path id="Vector_29" d="M168.541 47.5683C169.802 44.5252 170.963 41.3019 171.804 38.0286C174.037 29.3198 174.047 20.1905 168.041 12.7129C166.579 10.8911 164.807 9.22939 162.635 8.35851C161.794 8.01816 160.873 7.81796 159.962 7.77791C157.77 3.50358 150.833 3.41349 146.539 4.2143C135.928 6.20632 132.955 17.6579 132.725 26.9474C132.565 33.6642 133.826 40.411 136.418 46.6073C139.041 52.8737 143.956 57.8888 146.268 64.2552C148.721 70.972 145.748 81.1424 140.683 85.9372C146.068 82.0633 149.822 77.789 151.664 71.2223C153.316 65.3363 152.365 58.8097 149.812 53.3341C148.561 50.6614 146.769 48.4292 145.347 45.8666C143.786 43.0537 144.266 41.0216 145.478 38.369C148.07 32.7232 139.472 28.8393 141.424 23.3037C142.445 20.4007 145.297 18.8191 148.26 17.7981C149.752 17.2876 151.263 16.9172 152.595 16.5969C153.406 16.3967 154.226 16.2565 155.017 16.1064C156.959 18.1084 160.233 18.2786 162.435 19.9903C166.589 23.2336 166.929 29.0795 166.028 33.8844C164.227 43.4841 159.392 52.4132 160.333 62.4334C160.953 69.0301 163.786 75.5967 168.911 79.781C165.268 74.4956 163.586 67.8889 164.277 61.5024C164.827 56.5474 166.659 52.1229 168.541 47.5683Z" fill="#212123"/>
</g>
<g id="Group_9">
<path id="Vector_30" d="M154.847 12.9031C145.878 9.20939 135.568 15.756 136.779 25.9264C137.169 29.2297 139.141 31.9725 139.992 35.1357C141.003 38.8795 140.252 42.6433 140.693 46.4272C141.754 55.4763 149.041 62.6836 147.059 72.2133C146.989 72.5236 147.48 72.6638 147.54 72.3434C148.521 67.6387 147.42 63.4144 145.598 59.0199C144.407 56.147 142.975 53.3742 142.064 50.4012C140.923 46.6874 141.263 43.0838 141.083 39.2799C140.833 34.0246 137.179 29.6501 137.169 24.4649C137.159 15.1955 146.599 10.0602 154.697 13.3836C155.007 13.5137 155.137 13.0333 154.847 12.9031Z" fill="#1B2349"/>
<path id="Vector_31" d="M157.23 12.803C156.919 12.753 156.779 13.2335 157.099 13.2835C162.645 14.2345 167.43 18.0884 168.731 23.7441C170.083 29.6401 167.06 35.426 165.398 40.9115C162.775 49.5703 161.894 58.5294 162.485 67.5386C162.505 67.8589 163.005 67.8589 162.985 67.5386C162.535 60.6816 162.905 53.8547 164.327 47.1178C165.628 40.9416 168.771 35.0156 169.432 28.7492C170.283 20.8512 164.997 14.1244 157.23 12.803Z" fill="#1B2349"/>
<path id="Vector_32" d="M156.659 11.2114C151.724 3.21328 141.704 7.29743 137.079 13.3936C129.662 23.1635 137.439 34.9054 139.231 45.1558C139.291 45.4762 139.772 45.336 139.712 45.0257C138.4 37.5581 134.316 30.531 134.386 22.8432C134.476 13.5538 148.841 -0.490474 156.229 11.4617C156.399 11.7319 156.829 11.4817 156.659 11.2114Z" fill="#1B2349"/>
<path id="Vector_33" d="M170.022 22.2826C168.531 16.697 164.257 8.89904 157.37 11.1013C157.059 11.2014 157.199 11.6819 157.5 11.5818C167.049 8.52867 170.493 23.584 170.453 30.0705C170.403 37.3679 167.8 44.325 165.007 50.9517C164.887 51.252 165.368 51.3821 165.488 51.0818C169.302 42.0627 172.655 32.1026 170.022 22.2826Z" fill="#1B2349"/>
</g>
</g>
<g id="eyes-mouth">
<path id="Vector_34" d="M154.635 39.8939C152.935 39.6339 150.985 38.7239 149.815 36.1539C149.725 35.9439 149.815 35.6939 150.025 35.5939C150.235 35.4939 150.485 35.5939 150.585 35.8039C152.665 40.4039 157.505 38.9539 157.705 38.8939C157.925 38.8239 158.165 38.9539 158.235 39.1739C158.305 39.3939 158.185 39.6339 157.955 39.7039C157.935 39.7039 156.425 40.1639 154.635 39.8939Z" fill="#1B2349"/>
<path id="Vector_35" d="M147.715 30.7139C147.885 31.4839 148.655 31.9739 149.425 31.8039C150.195 31.6339 150.675 30.8639 150.505 30.0939C150.335 29.3239 149.565 28.8339 148.795 29.0039C148.015 29.1739 147.535 29.9439 147.715 30.7139Z" fill="#1B2349"/>
<path id="Vector_36" d="M159.145 28.9439C159.315 29.7139 160.085 30.2039 160.855 30.0339C161.625 29.8639 162.105 29.0939 161.935 28.3239C161.765 27.5539 160.995 27.0639 160.225 27.2339C159.455 27.4039 158.965 28.1739 159.145 28.9439Z" fill="#1B2349"/>
<path id="Vector_37" d="M157.745 23.8639C157.735 23.8539 157.725 23.8439 157.715 23.8239C157.575 23.6339 157.625 23.3739 157.805 23.2339C160.055 21.6039 161.985 22.8539 162.715 23.7439C162.855 23.9239 162.835 24.1839 162.655 24.3339C162.475 24.4839 162.225 24.4739 162.065 24.2739C162.015 24.2139 160.465 22.3639 158.315 23.9239C158.125 24.0539 157.885 24.0239 157.745 23.8639Z" fill="#1B2349"/>
<path id="Vector_38" d="M145.445 27.4239C145.425 27.4239 145.415 27.4139 145.405 27.4139C145.175 27.3539 145.045 27.1239 145.105 26.9039C145.815 24.2239 148.095 23.9539 149.215 24.1839C149.445 24.2339 149.585 24.4539 149.545 24.6839C149.495 24.9139 149.305 25.0639 149.045 25.0139C148.965 24.9939 146.595 24.5539 145.925 27.1239C145.855 27.3239 145.655 27.4539 145.445 27.4239Z" fill="#1B2349"/>
<path id="Vector_39" d="M156.905 35.2439C156.685 35.2739 156.475 35.1239 156.435 34.9039C156.405 34.6839 156.555 34.4739 156.775 34.4339C156.785 34.4339 157.545 34.2939 157.685 33.8439C157.745 33.6339 157.745 33.0339 156.405 31.8039C156.235 31.6539 156.225 31.3939 156.385 31.2239C156.535 31.0539 156.795 31.0439 156.965 31.1939C158.215 32.3439 158.705 33.2839 158.475 34.0639C158.175 35.0339 156.955 35.2339 156.905 35.2439Z" fill="#1B2349"/>
<path id="Vector_40" d="M167.14 30.7012L166.108 23.9243L155.968 25.4659L156.439 28.539C155.748 28.4189 154.927 28.519 154.026 29.0996L153.566 26.0965L143.425 27.6381L144.457 34.4149L154.597 32.8734L154.196 30.2107C155.027 29.53 155.808 29.3198 156.599 29.6001L156.999 32.2427L167.14 30.7012ZM145.307 33.2738L144.577 28.4689L152.735 27.2276L153.466 32.0325L145.307 33.2738ZM157.109 26.3067L165.268 25.0655L165.998 29.8703L157.84 31.1116L157.51 28.9294V28.9194L157.109 26.3067Z" fill="#3A4162"/>
</g>
</g>
</g>
<g id="right-arm">
<path id="Vector_41" d="M105.357 85.4968C103.385 87.8292 102.644 90.7521 103.035 93.5249C103.545 97.1686 106.258 100.132 109.701 101.433L140.973 110.432L144.567 106.698L118.991 92.2937L135.317 74.2053C140.072 68.93 142.495 64.8458 140.683 57.9889L140.192 55.9969C139.271 52.2431 134.476 51.1119 131.974 54.0649L105.357 85.4968Z" fill="black"/>
<path id="Vector_42" d="M143.606 106.208C143.606 106.208 159.302 107.469 159.122 117.309C159.122 117.309 159.302 120.712 156.259 114.266C156.259 114.266 154.827 112.294 153.756 112.474C153.756 112.474 157.55 117.399 157.41 118.861C157.34 119.601 155.188 120.883 152.325 113.555C152.325 113.555 155.228 120.843 152.255 120.452L150.353 113.916L150.663 119.791C150.663 119.791 148.551 122.504 148.2 114.626C148.18 114.636 148.16 114.646 148.14 114.646C145.197 114.196 142.845 113.445 140.993 110.983L140.743 110.332L143.606 106.208Z" fill="#F5D8BC"/>
</g>
<path id="Vector_43" d="M133.986 123.375H183.296L187.27 133.085C192.155 145.027 183.456 158.16 170.663 158.16H147.329C135.007 158.16 126.338 145.918 130.332 134.136L133.986 123.375Z" fill="#212123"/>
<path id="Vector_44" d="M181.014 156.158L196.529 157.66L229.062 247.751H238.572L221.775 154.697C220.073 145.267 213.847 137.289 205.118 133.335L182.525 123.125L181.014 156.158Z" fill="#212123"/>
<g id="Group_10">
<path id="Vector_45" d="M198.491 146.178C186.96 142.184 175.188 139.121 163.165 137.009C162.855 136.949 162.715 137.439 163.035 137.489C175.048 139.612 186.829 142.665 198.361 146.659C198.661 146.769 198.792 146.288 198.491 146.178Z" fill="#1B2349"/>
<path id="Vector_46" d="M214.778 196.609C212.135 188.331 210.403 179.782 207.691 171.534C204.928 163.126 201.264 154.947 197.991 146.729C197.871 146.429 197.39 146.559 197.51 146.859C200.673 154.797 204.157 162.695 206.92 170.783C209.813 179.282 211.565 188.171 214.297 196.74C219.763 213.867 225.168 231.064 231.385 247.932C231.495 248.232 231.975 248.102 231.865 247.801C225.649 230.924 220.243 213.737 214.778 196.609Z" fill="#1B2349"/>
</g>
<path id="Vector_47" d="M143.976 156.158L159.492 157.66L192.025 247.751H201.535L184.737 154.697C183.036 145.267 176.809 137.289 168.081 133.335L145.488 123.125L143.976 156.158Z" fill="#212123"/>
<path id="Vector_48" d="M166.509 148.961C166.669 148.841 166.639 148.521 166.369 148.521C156.989 148.541 147.68 150.593 138.36 148.681C138.38 148.601 138.39 148.521 138.31 148.451C135.708 145.668 136.829 139.962 137.64 136.699C137.67 136.579 137.6 136.489 137.52 136.438C141.333 134.517 144.276 131.163 145.688 126.979C145.788 126.669 145.307 126.538 145.207 126.849C143.345 132.394 138.681 136.398 132.935 137.449C132.615 137.51 132.755 137.99 133.065 137.93C134.496 137.67 135.868 137.219 137.139 136.619C136.258 140.182 135.177 145.738 137.91 148.741C137.81 148.871 137.81 149.081 138.02 149.121C147.319 151.083 156.629 149.091 165.998 149.021C176.729 181.915 187.47 214.798 198.201 247.691C198.301 247.992 198.782 247.862 198.682 247.561C187.961 214.688 177.24 181.825 166.509 148.961Z" fill="#1B2349"/>
<path id="Vector_49" d="M224.328 258.132C224.278 259.443 223.327 260.674 221.825 260.674L195.358 260.725C192.525 260.725 190.203 258.342 190.203 255.439L191.454 249.463L191.755 246.68L201.855 247.121C201.855 247.121 222.366 255.139 223.477 256.13C224.097 256.68 224.348 257.421 224.328 258.132Z" fill="#4D8593"/>
<path id="Vector_50" d="M259.954 258.132C259.914 259.443 259.003 260.674 257.561 260.674L232.326 260.725C229.623 260.725 227.411 258.342 227.411 255.439L228.602 249.463L228.882 246.68L238.512 247.121C238.512 247.121 258.062 255.139 259.123 256.13C259.734 256.68 259.974 257.421 259.954 258.132Z" fill="#4D8593"/>
<g id="Group_11">
<path id="Vector_51" d="M152.985 0C144.407 0 136.989 6.35644 133.606 15.4957C133.696 13.1834 130.282 11.3415 128.22 11.6318C124.867 12.1023 124.276 16.0663 124.096 18.7791C124.076 19.0994 124.576 19.0994 124.596 18.7791C124.747 16.5968 124.967 13.9241 127.029 12.6228C128.701 11.5617 132.354 12.6929 133.005 14.775C132.194 13.8841 131.003 13.3535 129.742 13.4837C127.8 13.6839 126.368 15.2255 125.808 17.0073C125.708 17.3176 126.188 17.4477 126.288 17.1374C126.749 15.6759 127.85 14.3746 129.411 14.0442C130.793 13.754 132.134 14.3546 132.905 15.4357C128.36 12.1623 127.549 23.5839 127.67 25.6961C127.69 26.0164 128.19 26.0164 128.17 25.6961C128.06 23.8442 128.13 22.0324 128.49 20.2105C128.801 18.6289 129.992 13.4837 132.975 16.1264C133.075 16.2165 133.185 16.1964 133.275 16.1364C133.295 16.1964 133.315 16.2565 133.335 16.3066C132.314 19.3096 131.714 22.5929 131.654 26.0364H134.657C134.917 13.2835 143.045 3.01307 152.995 3.01307C162.205 3.01307 169.852 11.812 171.144 23.2336C171.324 24.8352 172.715 26.0364 174.337 26.0364C174.057 11.6118 164.587 0 152.985 0Z" fill="#DD4E50"/>
<g id="Group_12">
<path id="Vector_52" d="M139.321 29.2397C139.321 33.4339 137.009 36.8274 134.166 36.8274C131.313 36.8274 129.011 33.4239 129.011 29.2397C129.011 25.0554 131.323 21.652 134.166 21.652C137.009 21.652 139.321 25.0554 139.321 29.2397Z" fill="#DD4E50"/>
<path id="Vector_53" d="M136.268 29.2797C136.268 32.6431 134.597 35.3659 132.525 35.3659C130.452 35.3659 128.781 32.6431 128.781 29.2797C128.781 25.9163 130.452 23.1935 132.525 23.1935C134.587 23.1935 136.268 25.9163 136.268 29.2797Z" fill="#3A4162"/>
</g>
</g>
<path id="Vector_54" d="M177.56 83.1744C177.82 78.3495 176.079 73.0141 175.228 68.2993C175.168 67.979 174.687 68.1191 174.747 68.4294C175.468 72.4435 176.609 76.6177 176.869 80.6919C177.22 86.1975 174.257 89.5909 171.404 93.8952C171.224 94.1655 171.654 94.4158 171.834 94.1455C171.894 94.0554 171.954 93.9753 172.015 93.8853C172.004 99.8013 174.297 105.827 175.738 111.473C175.818 111.783 176.299 111.653 176.219 111.343C174.727 105.517 172.305 99.2307 172.515 93.1545C174.657 90.1314 177.36 86.8982 177.56 83.1744Z" fill="#1B2349"/>
<path id="Vector_55" d="M138.29 70.7918C135.968 73.4846 133.656 76.1873 131.333 78.88C131.123 79.1203 131.473 79.4807 131.684 79.2304C134.006 76.5377 136.318 73.8349 138.641 71.1422C138.851 70.912 138.5 70.5516 138.29 70.7918Z" fill="#1B2349"/>
</g>
<g id="computer-desk">
<g id="Group_13">
<path id="Vector_56" d="M92.4036 265.99H106.088L47.9185 133.245H34.2346L92.4036 265.99Z" fill="#1B2349"/>
<g id="Group_14">
<path id="Vector_57" d="M56.8176 265.99H14.4046L72.5736 133.245H114.977L56.8176 265.99Z" fill="#3A4162"/>
<g id="Group_15">
<path id="Vector_58" d="M84.0552 145.718C66.4574 180.243 49.0097 214.888 31.7121 249.643C31.572 249.924 31.8623 250.184 32.0024 249.904C49.3 215.148 66.7477 180.503 84.3455 145.978C84.4857 145.698 84.1954 145.438 84.0552 145.718Z" fill="#1B2349"/>
<path id="Vector_59" d="M78.6997 167.87C65.126 197.36 50.6813 226.26 35.4058 254.478C35.2557 254.758 35.5459 255.009 35.6961 254.738C50.9816 226.51 65.4263 197.62 78.99 168.131C79.1202 167.84 78.8299 167.59 78.6997 167.87Z" fill="#1B2349"/>
<path id="Vector_60" d="M94.5058 154.116C79.6407 188.001 64.2051 221.525 48.1988 254.648C48.0587 254.929 48.359 255.189 48.4891 254.909C64.4954 221.785 79.931 188.261 94.7961 154.377C94.9263 154.086 94.636 153.826 94.5058 154.116Z" fill="#1B2349"/>
<path id="Vector_61" d="M102.113 149.702C96.708 161.474 91.3025 173.246 85.897 185.018C85.7669 185.308 86.0572 185.558 86.1873 185.278L102.404 149.962C102.544 149.672 102.254 149.412 102.113 149.702Z" fill="#1B2349"/>
<path id="Vector_62" d="M75.997 144.246C63.8647 161.314 61.1319 184.827 49.42 202.235C49.2499 202.485 49.5402 202.746 49.7103 202.495C61.4022 185.128 64.125 161.634 76.2172 144.607C76.3974 144.356 76.1772 143.996 75.997 144.246Z" fill="#1B2349"/>
<path id="Vector_63" d="M45.6863 212.686L32.9233 236.84C29.67 242.997 24.6349 250.084 23.3536 257.291C23.2935 257.611 23.6739 257.611 23.724 257.301C24.5548 252.636 27.1374 248.592 29.2496 244.598C31.1615 240.984 33.0635 237.381 34.9754 233.767C38.6491 226.83 42.3128 219.883 45.9866 212.946C46.1267 212.666 45.8364 212.405 45.6863 212.686Z" fill="#1B2349"/>
<path id="Vector_64" d="M79.2804 202.706C71.2522 220.624 60.161 239.072 54.0347 257.972C53.9346 258.282 53.284 258.412 53.3841 258.112C59.4903 239.253 71.5625 220.854 79.5707 202.966C79.7008 202.676 79.4105 202.415 79.2804 202.706Z" fill="#1B2349"/>
<path id="Vector_65" d="M56.177 222.185C55.4362 223.146 54.7956 224.177 54.265 225.289C54.235 225.329 54.215 225.359 54.1849 225.389C54.1549 225.439 54.1449 225.489 54.1349 225.529C53.5343 226.8 53.0738 228.161 52.7635 229.603C52.7134 229.823 52.8336 229.983 53.0037 229.883C54.7956 228.862 55.9567 226.58 55.9667 224.177C55.9667 224.047 55.8466 223.957 55.7565 223.997C55.5563 224.077 55.3862 224.177 55.216 224.287C55.5764 223.677 55.9668 223.086 56.3972 222.526C56.5774 222.305 56.3572 221.955 56.177 222.185ZM55.5063 225.419C55.5063 225.989 55.0959 226.87 54.8556 227.341C54.4352 228.161 53.8846 228.762 53.244 229.213C53.5643 227.911 54.0048 226.68 54.5653 225.529C55.0658 224.798 55.5063 224.508 55.5063 225.419Z" fill="#1B2349"/>
<path id="Vector_66" d="M87.7089 152.565C87.6588 152.264 87.2784 152.385 87.3285 152.685C87.3485 152.825 87.3685 152.965 87.3885 153.115C87.3785 153.125 87.3685 153.125 87.3685 153.135C87.0482 153.726 83.6047 159.151 85.7769 158.891C86.5277 158.801 87.0782 157.7 87.3585 156.889C87.849 155.458 87.9491 153.956 87.7089 152.565ZM86.4476 157.86C86.1473 158.371 85.847 158.2 85.5367 157.38C85.6167 157.209 85.6968 157.049 85.7769 156.879C85.9771 156.489 86.1973 156.098 86.4075 155.718C86.7579 155.077 87.0982 154.437 87.4486 153.796C87.4686 154.287 87.4486 154.787 87.3785 155.288C87.2684 155.988 86.9681 157.42 86.4476 157.86Z" fill="#1B2349"/>
</g>
</g>
<path id="Vector_67" d="M340.105 124.686H27.588C24.8953 124.686 22.703 126.869 22.703 129.571C22.703 132.264 24.8852 134.456 27.588 134.456H332.728L275.099 265.99H286.05L344.57 135.397C344.85 134.767 345 134.086 345 133.405V129.561C344.99 126.869 342.808 124.686 340.105 124.686Z" fill="#4D8593"/>
</g>
<g id="Group_16">
<g id="Group_17">
<path id="Vector_68" d="M315.92 102.434H215.248C210.894 102.434 207.631 98.52 208.522 94.3357L223.066 25.3858C223.727 22.2526 226.54 20.0103 229.793 20.0103H330.465C334.82 20.0103 338.083 23.9243 337.192 28.1085L322.647 97.0585C321.997 100.192 319.184 102.434 315.92 102.434Z" fill="#C5D6DF"/>
<path id="Vector_69" d="M316.952 102.434H220.313C216.129 102.434 213.006 98.6 213.847 94.4958L227.801 26.9473C228.432 23.8842 231.134 21.682 234.268 21.682H330.906C335.09 21.682 338.213 25.5259 337.372 29.62L323.418 97.1686C322.777 100.232 320.085 102.434 316.952 102.434Z" fill="#8FA1AB"/>
</g>
<path id="Vector_70" d="M268.072 99.2107L272.937 122.124H302.637L293.027 92.5339C291.215 86.9582 285.89 83.3045 280.034 83.6148C272.106 84.0352 266.43 91.4428 268.072 99.2107Z" fill="#C5D6DF"/>
<path id="Vector_71" d="M286.961 64.2252C286.961 68.1892 283.748 71.4024 279.784 71.4024C275.82 71.4024 272.607 68.1892 272.607 64.2252C272.607 60.2611 275.82 57.0479 279.784 57.0479C283.748 57.0579 286.961 60.2611 286.961 64.2252Z" fill="#C5D6DF"/>
<path id="Vector_72" d="M330.505 121.123H218.051C217.04 121.123 216.219 121.944 216.219 122.955C216.219 123.966 217.04 124.787 218.051 124.787H330.495C331.506 124.787 332.327 123.966 332.327 122.955C332.337 121.944 331.516 121.123 330.505 121.123Z" fill="#D9E4EA"/>
</g>
<g id="Group_18">
<path id="Vector_73" d="M44.5352 122.694H108.64C109.221 122.694 109.691 123.165 109.691 123.746C109.691 124.326 109.221 124.797 108.64 124.797H44.5352C43.9546 124.797 43.4841 124.326 43.4841 123.746C43.4841 123.165 43.9546 122.694 44.5352 122.694Z" fill="#D9E4EA"/>
<g id="Group_19">
<path id="Vector_74" d="M52.8437 112.044H110.232C112.714 112.044 114.576 109.811 114.066 107.429L105.777 68.1291C105.397 66.3473 103.795 65.066 101.943 65.066H44.5553C42.0727 65.066 40.2109 67.2983 40.7214 69.6807L49.0098 108.981C49.3802 110.762 50.9818 112.044 52.8437 112.044Z" fill="#C5D6DF"/>
<path id="Vector_75" d="M52.253 112.044H107.339C109.721 112.044 111.503 109.851 111.023 107.519L103.075 69.01C102.714 67.2582 101.173 66.0069 99.3909 66.0069H44.305C41.9225 66.0069 40.1407 68.1992 40.6212 70.5315L48.5793 109.041C48.9397 110.792 50.4712 112.044 52.253 112.044Z" fill="#8FA1AB"/>
</g>
<path id="Vector_76" d="M80.1213 110.212L77.3484 123.275H60.4213L65.8968 106.408C66.9279 103.235 69.971 101.143 73.3043 101.323C77.8189 101.553 81.0622 105.777 80.1213 110.212Z" fill="#C5D6DF"/>
<path id="Vector_77" d="M69.3604 90.2616C69.3604 92.5238 71.1922 94.3557 73.4545 94.3557C75.7168 94.3557 77.5487 92.5238 77.5487 90.2616C77.5487 87.9993 75.7168 86.1674 73.4545 86.1674C71.1922 86.1774 69.3604 88.0093 69.3604 90.2616Z" fill="#C5D6DF"/>
</g>
<path id="Vector_78" d="M208.251 121.543H121.663C120.763 121.543 120.032 122.274 120.032 123.175C120.032 124.076 120.763 124.807 121.663 124.807H208.251C209.152 124.807 209.883 124.076 209.883 123.175C209.883 122.264 209.152 121.543 208.251 121.543Z" fill="#D9E4EA"/>
</g>
</g>
</g>
</svg>
