<svg width="25" height="22" viewBox="0 0 25 22" fill="none" xmlns="http://www.w3.org/2000/svg">
<path fill-rule="evenodd" clip-rule="evenodd" d="M12.5 0C5.5958 0 0 5.04895 0 11.2784C0 16.2607 3.58056 20.4887 8.54848 21.9813C9.17385 22.0831 9.39944 21.7359 9.39944 21.4374C9.39944 21.1694 9.38941 20.4593 9.38565 19.5196C5.90786 20.2003 5.17345 18.0066 5.17345 18.0066C4.60698 16.7039 3.78609 16.3568 3.78609 16.3568C2.65189 15.6568 3.87257 15.6727 3.87257 15.6727C5.12833 15.7518 5.78629 16.8351 5.78629 16.8351C6.90169 18.5584 8.71391 18.0609 9.42325 17.7725C9.5373 17.0432 9.86314 16.5456 10.2191 16.2641C7.44436 15.9802 4.52677 15.0123 4.52677 10.6893C4.52677 9.46014 5.01429 8.45148 5.81011 7.66445C5.68353 7.37837 5.25115 6.23062 5.93418 4.67918C5.93418 4.67918 6.98316 4.375 9.37061 5.83372C10.3903 5.58344 11.442 5.45569 12.4987 5.45377C13.5555 5.45532 14.6073 5.58308 15.6269 5.83372C18.0156 4.37387 19.0633 4.67918 19.0633 4.67918C19.7463 6.23062 19.3177 7.37837 19.1874 7.66445C19.9895 8.45148 20.4707 9.45901 20.4707 10.6893C20.4707 15.0236 17.5506 15.9757 14.7659 16.255C15.2108 16.6033 15.6118 17.2908 15.6118 18.3425C15.6118 19.8509 15.5968 21.0676 15.5968 21.4374C15.5968 21.7393 15.8199 22.0899 16.4578 21.9791C21.4232 20.4842 25 16.2595 25 11.2784C25 5.04895 19.4042 0 12.5 0Z" fill="#161084"/>
</svg>
