<svg width="1360" height="483" viewBox="0 0 1360 483" fill="none" xmlns="http://www.w3.org/2000/svg">
<path d="M291.745 268.631C291.647 267.481 291.453 266.33 291.259 265.276L294.613 264.406C294.128 261.818 293.452 259.326 292.584 256.93L289.229 257.801C288.843 256.746 288.362 255.693 287.88 254.639L290.945 252.906C289.789 250.511 288.538 248.309 287.095 246.202L284.03 247.934C283.357 246.977 282.684 246.115 281.915 245.254L284.403 242.755C282.768 240.745 280.847 238.927 278.926 237.301L276.438 239.799C275.573 239.034 274.708 238.365 273.748 237.695L275.468 234.623C273.355 233.189 271.147 231.851 268.747 230.801L267.028 233.874C265.972 233.396 264.916 232.919 263.86 232.538L264.716 229.18C262.317 228.322 259.823 227.656 257.232 227.182L256.376 230.54C255.225 230.35 254.17 230.161 253.019 230.067L253.012 226.615C251.765 226.522 250.422 226.429 249.176 226.431C247.833 226.434 246.587 226.533 245.34 226.631L245.348 230.083C244.197 230.182 243.047 230.376 241.992 230.57L241.122 227.215C238.534 227.7 236.042 228.377 233.647 229.245L234.517 232.599C233.463 232.985 232.409 233.467 231.355 233.949L229.623 230.884C227.228 232.039 225.025 233.291 222.918 234.733L224.651 237.798C223.693 238.472 222.832 239.145 221.97 239.914L219.472 237.426C217.461 239.06 215.644 240.982 214.017 242.903L216.516 245.391C215.751 246.256 215.081 247.12 214.412 248.08L211.34 246.361C209.906 248.473 208.568 250.682 207.518 253.081L210.59 254.801C210.113 255.857 209.636 256.913 209.254 257.968L205.896 257.112C205.038 259.511 204.372 262.006 203.898 264.596L207.256 265.452C207.067 266.603 206.877 267.659 206.784 268.809L203.236 268.817C203.142 270.064 203.049 271.406 203.052 272.653C203.055 273.9 203.153 275.242 203.252 276.488L206.8 276.481C206.898 277.631 207.092 278.782 207.286 279.836L203.932 280.706C204.417 283.294 205.093 285.786 205.961 288.182L209.316 287.312C209.702 288.366 210.183 289.419 210.665 290.473L207.6 292.206C208.756 294.601 210.007 296.804 211.45 298.91L214.515 297.178C215.188 298.135 215.861 298.997 216.63 299.858L214.142 302.357C215.777 304.367 217.698 306.185 219.619 307.811L222.107 305.313C222.972 306.078 223.837 306.747 224.797 307.417L223.077 310.489C225.19 311.923 227.398 313.261 229.798 314.311L231.517 311.238C232.573 311.716 233.629 312.193 234.685 312.574L233.829 315.932C236.228 316.79 238.722 317.456 241.313 317.93L242.169 314.572C243.32 314.762 244.375 314.951 245.526 315.045L245.533 318.593C246.78 318.686 248.123 318.779 249.369 318.777C250.712 318.774 251.958 318.675 253.205 318.577L253.197 315.029C254.348 314.93 255.498 314.736 256.553 314.542L257.423 317.897C260.011 317.412 262.503 316.735 264.898 315.867L264.028 312.513C265.082 312.127 266.136 311.645 267.19 311.164L268.922 314.229C271.317 313.073 273.52 311.822 275.627 310.379L273.894 307.314C274.852 306.641 275.713 305.967 276.575 305.198L279.073 307.686C281.084 306.052 282.901 304.13 284.528 302.209L282.029 299.721C282.795 298.856 283.464 297.992 284.133 297.032L287.205 298.751C288.639 296.639 289.977 294.43 291.027 292.031L287.955 290.311C288.432 289.255 288.909 288.199 289.291 287.144L292.649 288C293.507 285.601 294.173 283.106 294.647 280.516L291.289 279.66C291.478 278.509 291.668 277.454 291.761 276.303L295.309 276.295C295.403 275.048 295.496 273.706 295.493 272.459C295.49 271.212 295.392 269.87 295.293 268.624L291.745 268.631ZM258.383 272.633C258.393 277.619 254.374 281.655 249.387 281.666C244.401 281.676 240.365 277.657 240.355 272.671C240.344 267.684 244.363 263.648 249.35 263.638C254.336 263.627 258.372 267.646 258.383 272.633ZM232.868 269.33C232.678 270.385 232.489 271.536 232.491 272.687C232.509 280.934 238.564 287.826 246.431 289.152L246.462 304.111C230.349 302.706 217.663 289.212 217.628 272.622C217.621 269.554 218.095 266.58 218.856 263.798L232.868 269.33ZM271.473 250.07L260.082 259.78C257.2 257.388 253.457 255.862 249.333 255.87C243.292 255.883 238.025 259.155 235.062 263.955L221.05 258.519C226.207 248.152 236.932 241.033 249.302 241.007C257.933 240.989 265.707 244.425 271.473 250.07ZM281.013 272.585C281.048 289.079 268.418 302.626 252.312 304.195L252.28 289.235C260.141 287.876 266.167 280.959 266.15 272.712C266.144 269.644 265.275 266.769 263.831 264.279L275.222 254.57C278.78 259.549 280.999 265.777 281.013 272.585Z" fill="#725F57" fill-opacity="0.08"/>
<path d="M214.092 415.128L308.259 414.93L308.263 416.848L214.863 417.044L178.403 452.889L62.6598 453.132L62.3715 452.845L40.5553 429.78L41.9909 428.434L63.5188 451.212L177.632 450.973L214.092 415.128Z" fill="#725F57" fill-opacity="0.08"/>
<path d="M4.39789 427.362L33.4531 427.301L33.4491 425.384L4.39387 425.445L4.39789 427.362Z" fill="#725F57" fill-opacity="0.08"/>
<path d="M27.5624 87.2752L107.632 87.1073L107.628 85.1895L27.5584 85.3574L27.5624 87.2752Z" fill="#725F57" fill-opacity="0.08"/>
<path d="M131.269 63.8515L210.573 63.6851L237.193 90.959L301.249 90.8246L331.816 125.666L339.584 125.649L339.588 127.567L330.957 127.585L300.39 92.7443L236.429 92.8784L209.714 65.6048L132.136 65.7675L116.063 83.158L114.621 81.8185L131.269 63.8515Z" fill="#725F57" fill-opacity="0.08"/>
<path d="M537.301 255.363L580.74 255.272C586.11 255.261 590.435 259.567 590.446 264.937L590.596 336.473C590.605 340.789 594.064 344.233 598.38 344.224L637.6 344.142L637.604 346.06L598.384 346.142C593.014 346.154 588.689 341.847 588.678 336.477L588.528 264.845C588.519 260.53 585.059 257.085 580.744 257.094L537.305 257.185C532.989 257.194 529.545 260.654 529.554 264.969L529.757 361.725C529.768 367.095 525.462 371.419 520.092 371.431L433.212 371.613C427.842 371.624 423.518 367.318 423.507 361.948L423.379 300.96C423.37 296.645 419.911 293.2 415.595 293.209L363.813 293.317C359.498 293.327 356.053 296.786 356.062 301.101L356.163 349.144C356.174 354.514 351.868 358.838 346.498 358.849L202.562 359.151C197.192 359.162 192.868 354.856 192.857 349.486L192.703 276.32C192.694 272.004 189.235 268.559 184.92 268.569L87.3962 268.773C83.0811 268.782 79.6362 272.242 79.6452 276.557L79.8906 393.546C79.9019 398.916 75.5957 403.241 70.2257 403.252L4.34717 403.39L4.34315 401.472L70.2217 401.334C74.5369 401.325 77.9817 397.866 77.9727 393.55L77.7273 276.561C77.716 271.191 82.0222 266.866 87.3922 266.855L184.916 266.651C190.286 266.639 194.61 270.946 194.621 276.316L194.775 349.482C194.784 353.797 198.243 357.242 202.558 357.233L346.494 356.931C350.809 356.922 354.254 353.463 354.245 349.148L354.144 301.105C354.133 295.735 358.439 291.411 363.809 291.4L415.591 291.291C420.961 291.28 425.286 295.586 425.297 300.956L425.425 361.944C425.434 366.259 428.893 369.704 433.208 369.695L520.088 369.513C524.403 369.504 527.848 366.044 527.839 361.729L527.636 264.973C527.625 259.699 531.931 255.375 537.301 255.363Z" fill="#725F57" fill-opacity="0.08"/>
<path d="M4.38634 421.993C1.9502 421.998 -0.0206373 423.977 -0.0155274 426.413C-0.0104176 428.849 1.9687 430.82 4.40485 430.815C6.84099 430.81 8.81171 428.83 8.8066 426.394C8.80149 423.958 6.82249 421.987 4.38634 421.993Z" fill="#725F57" fill-opacity="0.08"/>
<path d="M27.4544 81.9055C25.0183 81.9106 23.0476 83.8897 23.0527 86.3258C23.0578 88.762 25.0368 90.7327 27.4729 90.7276C29.9091 90.7225 31.8798 88.7435 31.8747 86.3073C31.8696 83.8712 29.8906 81.9004 27.4544 81.9055Z" fill="#725F57" fill-opacity="0.08"/>
<path d="M112.03 80.7692C115.003 80.763 117.405 83.1553 117.412 86.1279C117.418 89.1006 115.026 91.5029 112.053 91.5091C109.08 91.5153 106.678 89.1231 106.672 86.1504C106.665 83.1778 109.058 80.7754 112.03 80.7692ZM112.049 89.5913C113.967 89.5872 115.498 88.0498 115.494 86.1319C115.49 84.2141 113.952 82.683 112.034 82.687C110.117 82.6911 108.585 84.2286 108.589 86.1464C108.593 88.0643 110.131 89.5953 112.049 89.5913Z" fill="#725F57" fill-opacity="0.08"/>
<path d="M209.894 60.2345C207.458 60.2396 205.488 62.2186 205.493 64.6548C205.498 67.0909 207.477 69.0617 209.913 69.0565C212.349 69.0514 214.32 67.0724 214.315 64.6363C214.31 62.2001 212.331 60.2294 209.894 60.2345Z" fill="#725F57" fill-opacity="0.08"/>
<path d="M343.986 121.229C346.958 121.223 349.361 123.615 349.367 126.588C349.373 129.561 346.981 131.963 344.008 131.969C341.036 131.975 338.633 129.583 338.627 126.61C338.621 123.638 341.013 121.235 343.986 121.229ZM344.004 130.051C345.922 130.047 347.453 128.51 347.449 126.592C347.445 124.674 345.908 123.143 343.99 123.147C342.072 123.151 340.541 124.689 340.545 126.606C340.549 128.524 342.086 130.055 344.004 130.051Z" fill="#725F57" fill-opacity="0.08"/>
<path d="M454.104 136.533C451.668 136.538 449.697 138.517 449.702 140.953C449.707 143.389 451.686 145.36 454.122 145.355C456.558 145.35 458.529 143.371 458.524 140.935C458.519 138.499 456.54 136.528 454.104 136.533Z" fill="#725F57" fill-opacity="0.08"/>
<path d="M632.849 136.158C630.412 136.163 628.442 138.142 628.447 140.578C628.452 143.014 630.431 144.985 632.867 144.98C635.303 144.975 637.274 142.996 637.269 140.56C637.264 138.124 635.285 136.153 632.849 136.158Z" fill="#725F57" fill-opacity="0.08"/>
<path d="M37.8508 420.963C40.8235 420.957 43.2259 423.349 43.2321 426.322C43.2384 429.295 40.846 431.697 37.8733 431.703C34.9007 431.71 32.4984 429.317 32.4922 426.345C32.4859 423.372 34.8782 420.97 37.8508 420.963ZM37.8693 429.785C39.7872 429.781 41.3183 428.244 41.3143 426.326C41.3103 424.408 39.7727 422.877 37.8548 422.881C35.937 422.885 34.406 424.423 34.41 426.341C34.414 428.258 35.9515 429.79 37.8693 429.785Z" fill="#725F57" fill-opacity="0.08"/>
<path d="M179.062 447.517C176.626 447.522 174.655 449.502 174.66 451.938C174.665 454.374 176.644 456.345 179.08 456.339C181.517 456.334 183.487 454.355 183.482 451.919C183.477 449.483 181.498 447.512 179.062 447.517Z" fill="#725F57" fill-opacity="0.08"/>
<path d="M312.661 410.51C314.195 410.507 315.731 411.175 316.692 412.42C317.75 413.568 318.137 415.197 317.948 416.732C317.569 419.034 315.751 420.86 313.451 421.248C311.533 421.54 309.71 420.873 308.556 419.437C307.499 418.288 307.112 416.659 307.301 415.124C307.679 412.822 309.498 410.996 311.702 410.704C312.086 410.511 312.373 410.511 312.661 410.51ZM312.679 419.332C312.871 419.332 313.063 419.331 313.255 419.331C314.693 419.136 315.841 417.887 316.126 416.448C316.315 415.393 316.025 414.435 315.353 413.669C314.68 412.903 313.72 412.426 312.761 412.428C312.569 412.428 312.377 412.429 312.186 412.429C310.748 412.624 309.599 413.873 309.315 415.312C309.125 416.367 309.415 417.325 310.088 418.091C310.761 418.857 311.721 419.334 312.679 419.332Z" fill="#725F57" fill-opacity="0.08"/>
<path d="M407.89 140.082L421.507 140.053C430.138 140.035 437.152 147.021 437.171 155.651L437.674 395.864C437.693 404.494 430.707 411.509 422.077 411.527L380.363 411.614C371.733 411.633 364.718 404.647 364.7 396.017L364.409 257.643L322.121 257.732C313.49 257.75 306.475 250.764 306.457 242.134L306.439 233.599L293.11 233.627C285.535 233.643 279.41 239.793 279.426 247.369L279.656 356.687C279.674 365.317 272.688 372.332 264.058 372.35L237.304 372.406C228.673 372.424 221.658 365.439 221.64 356.809L221.421 252.381C221.405 244.805 215.255 238.681 207.68 238.697L173.062 238.77C165.487 238.785 159.362 244.936 159.378 252.511L159.712 411.406C159.73 420.036 152.744 427.051 144.114 427.069L87.4409 427.188C78.8105 427.206 71.7956 420.221 71.7775 411.59L71.7232 385.699C71.7073 378.124 65.5573 371.999 57.9818 372.015L0.158141 372.137L0.154118 370.219L57.69 370.098C66.3204 370.08 73.3353 377.066 73.3534 385.696L73.4077 411.587C73.4236 419.163 79.5736 425.287 87.1491 425.271L143.822 425.152C151.398 425.136 157.522 418.986 157.506 411.411L157.173 252.516C157.155 243.885 164.14 236.87 172.771 236.852L207.388 236.78C216.018 236.762 223.033 243.747 223.051 252.378L223.27 356.805C223.286 364.381 229.436 370.505 237.012 370.489L263.766 370.433C271.342 370.417 277.466 364.267 277.45 356.691L277.221 247.373C277.203 238.743 284.188 231.728 292.818 231.71L306.148 231.682L305.995 158.707C305.979 151.132 299.829 145.007 292.253 145.023L96.0557 145.435C88.4801 145.451 82.3558 151.601 82.3717 159.176L82.5292 234.261C82.5473 242.891 75.5618 249.906 66.9314 249.924L-0.481512 250.065L-0.485535 248.148L67.0233 248.006C74.5988 247.99 80.7232 241.84 80.7073 234.264L80.5498 159.18C80.5317 150.55 87.5171 143.535 96.1475 143.517L292.345 143.105C300.975 143.087 307.99 150.073 308.008 158.703L308.161 231.678L350.45 231.589C359.081 231.571 366.096 238.556 366.114 247.187L366.132 255.721L378.598 255.695C386.173 255.679 392.298 249.529 392.282 241.954L392.101 155.842C392.275 147.211 399.26 140.1 407.89 140.082ZM422.073 409.609C429.648 409.593 435.772 403.443 435.757 395.868L435.253 155.751C435.237 148.176 429.087 142.051 421.511 142.067L407.895 142.096C400.319 142.112 394.195 148.262 394.211 155.837L394.391 241.949C394.409 250.58 387.424 257.595 378.793 257.613L366.327 257.639L366.618 396.013C366.633 403.588 372.784 409.712 380.359 409.697L422.073 409.609ZM364.405 255.725L364.388 247.19C364.372 239.615 358.222 233.491 350.646 233.507L308.357 233.595L308.375 242.13C308.391 249.705 314.541 255.83 322.117 255.814L364.405 255.725Z" fill="#725F57" fill-opacity="0.08"/>
<path d="M501.021 148.709L538.323 148.631C545.515 148.616 551.377 154.453 551.392 161.645L551.644 281.512C551.657 287.649 556.654 292.625 562.791 292.612L637.491 292.455L637.495 294.373L562.795 294.53C555.603 294.545 549.741 288.708 549.726 281.516L549.474 161.649C549.462 155.512 544.465 150.536 538.328 150.549L501.025 150.627C494.888 150.64 489.912 155.637 489.925 161.774L490.25 316.833C490.265 324.025 484.428 329.887 477.236 329.902L436.673 329.987L436.669 328.069L477.232 327.984C483.369 327.971 488.345 322.975 488.332 316.837L488.007 161.778C487.992 154.586 493.829 148.724 501.021 148.709Z" fill="#725F57" fill-opacity="0.08"/>
<path d="M48.0572 303.664C45.621 303.669 43.6503 305.648 43.6554 308.084C43.6605 310.521 45.6395 312.491 48.0757 312.486C50.5118 312.481 52.4826 310.502 52.4775 308.066C52.4723 305.63 50.4933 303.659 48.0572 303.664Z" fill="#725F57" fill-opacity="0.08"/>
<path d="M63.494 302.673C66.4666 302.667 68.8691 305.059 68.8753 308.032C68.8815 311.004 66.4892 313.407 63.5165 313.413C60.5439 313.419 58.1416 311.027 58.1353 308.054C58.1291 305.081 60.5213 302.679 63.494 302.673ZM63.5127 311.591C65.4305 311.587 66.9617 310.049 66.9577 308.131C66.9536 306.214 65.4161 304.683 63.4982 304.687C61.5804 304.691 60.0493 306.228 60.0534 308.146C60.0574 310.064 61.5949 311.595 63.5127 311.591Z" fill="#725F57" fill-opacity="0.08"/>
<path d="M423.092 26.8961C422.994 26.225 422.897 25.554 422.8 24.8829L424.812 24.3033C424.521 22.7697 424.135 21.3321 423.652 19.8947L421.64 20.4743C421.447 19.8035 421.158 19.2287 420.869 18.654L422.689 17.5953C422.015 16.2542 421.245 14.9134 420.379 13.6686L418.559 14.7272C418.175 14.1527 417.79 13.6741 417.309 13.0997L418.745 11.6583C417.783 10.5096 416.726 9.457 415.478 8.40481L414.042 9.8462C413.562 9.46364 412.986 8.9854 412.409 8.60304L413.46 6.77885C412.212 5.91844 410.868 5.15416 409.524 4.48573L408.473 6.30986C407.897 6.02339 407.225 5.73713 406.649 5.54655L407.221 3.53164C405.781 3.05519 404.342 2.67463 402.807 2.39018L402.236 4.40509C401.564 4.3106 400.893 4.21614 400.222 4.12165L400.217 2.10794C399.45 2.01366 398.683 2.01523 397.916 2.01684C397.149 2.01845 396.382 2.02009 395.615 2.11759L395.619 4.1313C394.948 4.22861 394.277 4.32589 393.606 4.42319L393.026 2.41069C391.492 2.70159 390.055 3.08818 388.618 3.57066L389.197 5.58316C388.526 5.77635 387.951 6.06522 387.377 6.35411L386.318 4.5344C384.977 5.20846 383.636 5.97838 382.391 6.84402L383.45 8.66378C382.875 9.04856 382.397 9.43312 381.822 9.91378L380.381 8.47842C379.232 9.43976 378.18 10.4968 377.128 11.7456L378.569 13.181C378.186 13.6612 377.708 14.2376 377.326 14.8137L375.502 13.7627C374.641 15.0111 373.877 16.3552 373.208 17.6991L375.033 18.7501C374.746 19.3261 374.46 19.9979 374.269 20.5737L372.254 20.0026C371.778 21.4419 371.397 22.8811 371.113 24.416L373.128 24.9871C373.033 25.6586 372.939 26.33 372.844 27.0015L370.831 27.0057C370.736 27.773 370.738 28.5402 370.74 29.3073C370.741 30.0744 370.743 30.8415 370.84 31.6085L372.854 31.6043C372.951 32.2753 373.049 32.9464 373.146 33.6174L371.133 34.197C371.424 35.7306 371.811 37.1682 372.293 38.6056L374.306 38.026C374.499 38.6968 374.788 39.2716 375.077 39.8464L373.257 40.905C373.931 42.2461 374.701 43.587 375.567 44.8318L377.387 43.7731C377.771 44.3476 378.156 44.8263 378.637 45.4007L377.201 46.842C378.163 47.9907 379.22 49.0434 380.468 50.0956L381.904 48.6542C382.384 49.0367 382.96 49.515 383.536 49.8973L382.486 51.7215C383.734 52.5819 385.078 53.3462 386.422 54.0146L387.473 52.1905C388.049 52.4769 388.721 52.7632 389.296 52.9538L388.725 54.9687C390.165 55.4452 391.604 55.8257 393.139 56.1102L393.71 54.0952C394.381 54.1897 395.053 54.2842 395.724 54.3787L395.728 56.3924C396.496 56.4867 397.263 56.4851 398.03 56.4835C398.797 56.4819 399.564 56.4803 400.331 56.3828L400.327 54.3691C400.998 54.2718 401.669 54.1744 402.34 54.0771L402.92 56.0897C404.453 55.7988 405.891 55.4122 407.328 54.9297L406.749 52.9172C407.42 52.724 407.994 52.4351 408.569 52.1462L409.628 53.966C410.969 53.2919 412.31 52.5219 413.554 51.6563L412.496 49.8366C413.07 49.4518 413.549 49.0672 414.123 48.5866L415.565 50.0219C416.714 49.0606 417.766 48.0036 418.818 46.7548L417.377 45.3194C417.759 44.8391 418.238 44.2628 418.62 43.6866L420.444 44.7376C421.305 43.4892 422.069 42.1451 422.737 40.8012L420.913 39.7502C421.2 39.1743 421.486 38.5024 421.677 37.9266L423.691 38.4978C424.168 37.0584 424.548 35.6192 424.833 34.0843L422.818 33.5132C422.912 32.8418 423.007 32.1703 423.101 31.4989L425.115 31.4946C425.209 30.7273 425.208 29.9602 425.206 29.1931C425.205 28.4259 425.203 27.6588 425.106 26.8918L423.092 26.8961ZM403.439 29.2387C403.445 32.2114 401.053 34.5178 398.176 34.5238C395.299 34.5299 392.897 32.1376 392.891 29.2608C392.885 26.3841 395.277 23.9818 398.154 23.9757C401.03 23.9697 403.433 26.2661 403.439 29.2387ZM388.475 27.2563C388.381 27.9278 388.286 28.5993 388.288 29.2705C388.298 34.161 391.855 38.181 396.459 38.9385L396.477 47.7605C386.982 46.9174 379.582 38.9739 379.562 29.2888C379.558 27.4669 379.842 25.7402 380.318 24.109L388.475 27.2563ZM411.082 15.9895L404.382 21.6612C402.653 20.2265 400.445 19.3681 398.048 19.3731C394.5 19.3806 391.34 21.305 389.619 24.0895L381.366 20.8465C384.422 14.7989 390.742 10.5663 397.934 10.5512C403.112 10.6363 407.719 12.6404 411.082 15.9895ZM416.672 29.211C416.692 38.896 409.325 46.8706 399.834 47.7535L399.815 38.9314C404.416 38.1546 407.956 34.1198 407.946 29.2293C407.942 27.4073 407.459 25.6823 406.593 24.2457L413.293 18.574C415.409 21.5422 416.664 25.2794 416.672 29.211Z" fill="#725F57" fill-opacity="0.08"/>
<path d="M270.852 457.106C270.755 456.531 270.754 455.956 270.657 455.476L272.382 454.993C272.188 453.747 271.801 452.501 271.415 451.256L269.69 451.739C269.497 451.164 269.304 450.685 269.016 450.206L270.548 449.34C269.97 448.19 269.297 447.041 268.623 445.987L267.091 446.854C266.802 446.375 266.418 445.992 266.033 445.513L267.277 444.264C266.412 443.307 265.547 442.35 264.587 441.585L263.343 442.834C262.862 442.451 262.478 442.165 261.998 441.782L262.858 440.246C261.801 439.481 260.649 438.908 259.497 438.335L258.638 439.871C258.158 439.68 257.582 439.394 257.102 439.203L257.578 437.476C256.33 436.999 255.083 436.714 253.836 436.525L253.36 438.252C252.785 438.157 252.209 438.063 251.73 438.064L251.726 436.338C251.054 436.243 250.479 436.244 249.808 436.246C249.137 436.247 248.561 436.248 247.89 436.346L247.893 437.88C247.318 437.977 246.743 437.978 246.264 438.075L245.781 436.35C244.534 436.545 243.289 436.931 242.043 437.317L242.526 439.042C241.951 439.235 241.472 439.428 240.993 439.716L240.127 438.184C238.977 438.762 237.828 439.435 236.775 440.109L237.641 441.641C237.162 441.93 236.779 442.314 236.301 442.699L235.051 441.455C234.094 442.32 233.137 443.185 232.372 444.146L233.621 445.39C233.239 445.87 232.952 446.254 232.569 446.734L231.033 445.874C230.268 446.931 229.695 448.083 229.122 449.235L230.658 450.095C230.468 450.574 230.181 451.15 229.99 451.63L228.263 451.154C227.787 452.402 227.501 453.649 227.312 454.896L229.039 455.372C228.945 455.948 228.85 456.523 228.851 457.003L227.125 457.006C227.031 457.678 227.032 458.253 227.033 458.924C227.035 459.595 227.036 460.171 227.133 460.842L228.859 460.838C228.956 461.413 228.957 461.989 229.054 462.468L227.329 462.951C227.524 464.197 227.91 465.443 228.296 466.689L230.021 466.206C230.214 466.781 230.407 467.26 230.695 467.739L229.163 468.605C229.741 469.754 230.414 470.904 231.088 471.957L232.62 471.091C232.909 471.57 233.294 471.952 233.678 472.431L232.434 473.68C233.299 474.637 234.164 475.595 235.125 476.36L236.369 475.11C236.849 475.493 237.233 475.78 237.713 476.162L236.854 477.699C237.91 478.463 239.062 479.036 240.214 479.609L241.074 478.073C241.553 478.264 242.129 478.551 242.609 478.741L242.133 480.468C243.381 480.945 244.628 481.23 245.875 481.419L246.351 479.692C246.927 479.787 247.502 479.882 247.982 479.881L247.986 481.99C248.657 482.085 249.233 482.084 249.904 482.082C250.575 482.081 251.151 482.08 251.822 481.982L251.818 480.256C252.393 480.159 252.969 480.158 253.448 480.061L253.931 481.786C255.177 481.592 256.423 481.205 257.669 480.819L257.186 479.094C257.761 478.901 258.24 478.708 258.719 478.42L259.585 479.952C260.734 479.374 261.884 478.701 262.937 478.027L262.071 476.495C262.55 476.206 262.932 475.822 263.411 475.437L264.66 476.681C265.617 475.816 266.574 474.951 267.34 473.991L266.09 472.747C266.473 472.266 266.76 471.882 267.142 471.402L268.678 472.262C269.443 471.205 270.016 470.053 270.589 468.902L269.053 468.042C269.244 467.562 269.53 466.986 269.721 466.506L271.448 466.982C271.925 465.734 272.21 464.487 272.399 463.24L270.672 462.764C270.767 462.189 270.862 461.613 270.861 461.134L272.587 461.13C272.681 460.459 272.68 459.883 272.678 459.212C272.677 458.541 272.676 457.965 272.579 457.294L270.853 457.298L270.852 457.106ZM254.171 459.059C254.176 461.552 252.167 463.57 249.673 463.575C247.18 463.581 245.162 461.571 245.157 459.078C245.152 456.585 247.161 454.567 249.655 454.562C252.148 454.556 254.166 456.566 254.171 459.059ZM241.51 457.36C241.415 457.935 241.32 458.511 241.321 459.086C241.33 463.209 244.31 466.655 248.243 467.318L248.259 474.798C240.202 474.048 233.859 467.348 233.842 459.102C233.839 457.567 234.027 456.129 234.504 454.689L241.51 457.36ZM260.764 447.826L255.116 452.632C253.675 451.389 251.756 450.721 249.742 450.726C246.674 450.732 244.088 452.368 242.655 454.768L235.649 452.002C238.227 446.818 243.59 443.259 249.727 443.246C254.042 443.333 257.881 445.051 260.764 447.826ZM265.486 459.035C265.504 467.282 259.189 474.008 251.135 474.792L251.12 467.312C255.05 466.633 258.015 463.174 258.007 459.051C258.003 457.517 257.617 456.079 256.847 454.834L262.591 450.028C264.418 452.517 265.479 455.679 265.486 459.035Z" fill="#725F57" fill-opacity="0.08"/>
<path d="M353.789 177.498C353.788 177.019 353.691 176.636 353.595 176.252L354.936 175.866C354.742 174.907 354.453 173.949 354.163 172.991L352.821 173.377C352.629 172.994 352.532 172.61 352.339 172.131L353.489 171.458C353.103 170.596 352.526 169.734 351.949 168.872L350.8 169.546C350.511 169.163 350.319 168.875 350.03 168.492L350.987 167.531C350.314 166.766 349.642 166.096 348.873 165.426L347.916 166.387C347.628 166.1 347.244 165.813 346.86 165.622L347.529 164.47C346.76 163.896 345.896 163.419 344.936 162.941L344.268 164.093C343.884 163.902 343.5 163.711 343.02 163.617L343.401 162.273C342.441 161.988 341.482 161.702 340.522 161.512L340.142 162.855C339.758 162.76 339.278 162.761 338.894 162.666L338.892 161.324C338.412 161.325 337.933 161.23 337.357 161.231C336.782 161.232 336.398 161.233 335.823 161.33L335.826 162.673C335.347 162.674 334.963 162.77 334.58 162.867L334.193 161.525C333.235 161.719 332.277 162.009 331.318 162.299L331.705 163.64C331.321 163.833 330.938 163.93 330.459 164.122L329.785 162.973C328.923 163.358 328.061 163.936 327.2 164.513L327.873 165.662C327.49 165.951 327.203 166.143 326.82 166.431L325.859 165.474C325.093 166.147 324.424 166.82 323.754 167.589L324.715 168.545C324.428 168.834 324.141 169.218 323.95 169.602L322.798 168.933C322.224 169.701 321.746 170.565 321.269 171.525L322.421 172.194C322.23 172.578 322.039 172.962 321.944 173.442L320.601 173.061C320.315 174.021 320.03 174.98 319.84 175.939L321.183 176.32C321.088 176.704 321.089 177.183 320.994 177.567L319.651 177.57C319.652 178.049 319.558 178.529 319.559 179.104C319.56 179.68 319.561 180.063 319.658 180.638L321 180.636C321.001 181.115 321.098 181.498 321.195 181.978L319.853 182.364C320.047 183.323 320.337 184.281 320.626 185.239L321.968 184.853C322.161 185.236 322.257 185.619 322.45 186.098L321.301 186.772C321.686 187.634 322.263 188.496 322.841 189.358L323.99 188.684C324.278 189.067 324.471 189.355 324.759 189.738L323.802 190.699C324.475 191.464 325.148 192.134 325.916 192.804L326.873 191.843C327.162 192.13 327.546 192.417 327.93 192.608L327.261 193.76C328.029 194.334 328.893 194.811 329.853 195.289L330.522 194.137C330.906 194.327 331.29 194.518 331.77 194.613L331.389 195.957C332.348 196.242 333.308 196.528 334.267 196.718L334.648 195.374C335.032 195.47 335.511 195.469 335.895 195.564L335.898 196.906C336.377 196.905 336.857 197 337.432 196.999C338.008 196.998 338.391 196.997 338.966 196.9L338.963 195.557C339.443 195.556 339.826 195.459 340.21 195.363L340.596 196.704C341.555 196.511 342.513 196.221 343.471 195.931L343.085 194.59C343.468 194.397 343.851 194.3 344.33 194.108L345.004 195.257C345.866 194.871 346.728 194.294 347.59 193.717L346.916 192.568C347.299 192.279 347.587 192.087 347.969 191.798L348.93 192.755C349.696 192.083 350.366 191.41 351.036 190.641L350.075 189.684C350.362 189.396 350.649 189.012 350.84 188.628L351.992 189.297C352.566 188.529 353.043 187.664 353.521 186.705L352.368 186.036C352.559 185.652 352.75 185.268 352.845 184.788L354.189 185.169C354.474 184.209 354.76 183.25 354.95 182.291L353.606 181.91C353.702 181.526 353.7 181.047 353.795 180.567L355.138 180.564C355.137 180.085 355.232 179.605 355.23 179.03C355.229 178.454 355.229 178.071 355.131 177.496L353.789 177.498ZM340.943 179.06C340.947 180.977 339.416 182.515 337.498 182.519C335.58 182.523 334.042 180.992 334.038 179.074C334.034 177.156 335.565 175.619 337.483 175.615C339.401 175.611 340.939 177.142 340.943 179.06ZM331.159 177.738C331.064 178.121 331.065 178.601 331.066 179.08C331.072 182.245 333.379 184.925 336.449 185.398L336.461 191.151C330.227 190.589 325.421 185.421 325.408 179.092C325.406 177.941 325.595 176.79 325.88 175.639L331.159 177.738ZM346.007 170.323L341.603 174.072C340.451 173.115 339.011 172.543 337.477 172.546C335.175 172.551 333.068 173.802 332.017 175.626L326.643 173.528C328.649 169.592 332.766 166.802 337.465 166.793C340.821 166.881 343.797 168.218 346.007 170.323ZM349.669 179.041C349.682 185.37 344.803 190.654 338.667 191.147L338.655 185.393C341.722 184.907 344.018 182.218 344.011 179.053C344.009 177.902 343.719 176.752 343.141 175.795L347.544 172.046C348.795 174.057 349.663 176.452 349.669 179.041Z" fill="#725F57" fill-opacity="0.08"/>
<path d="M131.757 113.332C127.361 113.341 123.805 116.912 123.814 121.307C123.824 125.703 127.395 129.259 131.79 129.25C136.186 129.241 139.742 125.67 139.733 121.274C139.723 116.878 136.152 113.323 131.757 113.332Z" fill="#725F57" fill-opacity="0.08"/>
<path d="M157.933 112.222C162.824 112.212 166.86 116.231 166.87 121.121C166.88 126.012 162.861 130.048 157.971 130.058C153.08 130.068 149.044 126.049 149.034 121.159C149.024 116.268 152.947 112.233 157.933 112.222ZM157.967 128.236C161.803 128.228 164.961 125.057 164.952 121.221C164.944 117.385 161.773 114.228 157.938 114.236C154.102 114.244 150.944 117.415 150.952 121.251C150.864 125.086 154.035 128.244 157.967 128.236Z" fill="#725F57" fill-opacity="0.08"/>
<path d="M184.019 113.222C179.623 113.231 176.067 116.802 176.076 121.198C176.085 125.593 179.656 129.149 184.052 129.14C188.448 129.131 192.004 125.56 191.994 121.164C191.985 116.769 188.414 113.213 184.019 113.222Z" fill="#725F57" fill-opacity="0.08"/>
<path d="M210.099 112.113C214.99 112.102 219.026 116.121 219.036 121.012C219.046 125.902 215.027 129.938 210.137 129.948C205.246 129.959 201.21 125.94 201.2 121.049C201.19 116.159 205.209 112.123 210.099 112.113ZM210.133 128.127C213.968 128.119 217.126 124.947 217.118 121.112C217.11 117.276 213.939 114.118 210.103 114.126C206.268 114.134 203.11 117.305 203.118 121.141C203.126 124.977 206.297 128.135 210.133 128.127Z" fill="#725F57" fill-opacity="0.08"/>
<path d="M236.184 113.113C231.789 113.122 228.233 116.693 228.242 121.088C228.251 125.484 231.822 129.04 236.218 129.031C240.613 129.022 244.169 125.451 244.16 121.055C244.151 116.659 240.58 113.103 236.184 113.113Z" fill="#725F57" fill-opacity="0.08"/>
<path d="M262.361 112.003C267.251 111.993 271.287 116.012 271.298 120.902C271.308 125.793 267.289 129.829 262.398 129.839C257.508 129.849 253.472 125.83 253.462 120.94C253.451 116.049 257.375 112.013 262.361 112.003ZM262.395 128.017C266.23 128.009 269.388 124.838 269.38 121.002C269.372 117.166 266.201 114.009 262.365 114.017C258.53 114.025 255.372 117.196 255.38 121.031C255.292 124.867 258.463 128.025 262.395 128.017Z" fill="#725F57" fill-opacity="0.08"/>
<path d="M313.172 60.2097L273.76 60.2924L282.889 69.383L275.521 76.8781L253.804 55.3478L275.43 33.6308L282.83 41.0949L273.739 50.2237L313.151 50.1411L313.172 60.2097Z" fill="#725F57" fill-opacity="0.08"/>
<path d="M536.249 119.483L615.073 119.318L633.528 139.992L632.092 141.242L614.214 121.238L537.02 121.4L515.391 141.774L454.115 141.903L454.111 139.985L514.619 139.858L536.249 119.483Z" fill="#725F57" fill-opacity="0.08"/>
<path d="M1064.36 267.011C1064.26 268.257 1064.17 269.6 1064.17 270.847C1064.18 272.093 1064.27 273.436 1064.37 274.682L1067.92 274.675C1068.02 275.825 1068.21 276.975 1068.41 278.03L1065.05 278.9C1065.54 281.488 1066.21 283.98 1067.08 286.375L1070.44 285.505C1070.82 286.559 1071.3 287.613 1071.79 288.667L1068.72 290.4C1069.88 292.794 1071.13 294.997 1072.57 297.104L1075.64 295.371C1076.31 296.329 1076.98 297.191 1077.75 298.052L1075.26 300.551C1076.9 302.561 1078.82 304.379 1080.74 306.005L1083.23 303.507C1084.09 304.272 1084.96 304.941 1085.92 305.611L1084.2 308.683C1086.31 310.117 1088.52 311.455 1090.92 312.504L1092.64 309.432C1093.69 309.909 1094.75 310.387 1095.81 310.768L1094.95 314.126C1097.35 314.984 1099.84 315.65 1102.43 316.124L1103.29 312.766C1104.44 312.955 1105.5 313.145 1106.65 313.239L1106.65 316.787C1107.9 316.88 1109.24 316.973 1110.49 316.97C1111.83 316.967 1113.08 316.869 1114.33 316.771L1114.32 313.222C1115.47 313.124 1116.62 312.93 1117.67 312.736L1118.54 316.09C1121.13 315.605 1123.62 314.929 1126.02 314.061L1125.15 310.706C1126.2 310.321 1127.26 309.839 1128.31 309.357L1130.04 312.422C1132.44 311.267 1134.64 310.015 1136.75 308.573L1135.01 305.508C1135.97 304.834 1136.83 304.161 1137.7 303.392L1140.19 305.88C1142.2 304.246 1144.02 302.324 1145.65 300.403L1143.15 297.915C1143.92 297.05 1144.58 296.186 1145.25 295.225L1148.33 296.945C1149.76 294.832 1151.1 292.624 1152.15 290.225L1149.08 288.505C1149.55 287.449 1150.03 286.393 1150.41 285.338L1153.77 286.194C1154.63 283.794 1155.29 281.3 1155.77 278.71L1152.41 277.854C1152.6 276.703 1152.79 275.647 1152.88 274.496L1156.43 274.489C1156.52 273.242 1156.62 271.9 1156.61 270.653C1156.61 269.406 1156.51 268.064 1156.41 266.818L1152.87 266.825C1152.77 265.674 1152.57 264.524 1152.38 263.47L1155.73 262.6C1155.25 260.012 1154.57 257.52 1153.7 255.124L1150.35 255.994C1149.96 254.94 1149.48 253.886 1149 252.833L1152.07 251.1C1150.91 248.705 1149.66 246.502 1148.22 244.396L1145.15 246.128C1144.48 245.171 1143.8 244.309 1143.04 243.448L1145.52 240.949C1143.89 238.939 1141.97 237.121 1140.05 235.495L1137.56 237.993C1136.69 237.228 1135.83 236.558 1134.87 235.889L1136.59 232.817C1134.48 231.383 1132.27 230.045 1129.87 228.995L1128.15 232.067C1127.09 231.59 1126.04 231.113 1124.98 230.732L1125.84 227.374C1123.44 226.516 1120.94 225.85 1118.35 225.375L1117.5 228.734C1116.35 228.544 1115.29 228.355 1114.14 228.261L1114.13 224.809C1112.89 224.716 1111.54 224.623 1110.3 224.625C1108.95 224.628 1107.71 224.727 1106.46 224.825L1106.47 228.277C1105.32 228.376 1104.17 228.57 1103.11 228.764L1102.24 225.409C1099.65 225.894 1097.16 226.571 1094.77 227.439L1095.64 230.793C1094.58 231.179 1093.53 231.661 1092.48 232.142L1090.74 229.077C1088.35 230.233 1086.15 231.484 1084.04 232.927L1085.77 235.992C1084.81 236.665 1083.95 237.338 1083.09 238.107L1080.59 235.619C1078.58 237.254 1076.76 239.175 1075.14 241.097L1077.64 243.585C1076.87 244.449 1076.2 245.314 1075.53 246.274L1072.46 244.555C1071.03 246.667 1069.69 248.876 1068.64 251.275L1071.71 252.995C1071.23 254.051 1070.76 255.106 1070.37 256.162L1067.02 255.306C1066.16 257.705 1065.49 260.2 1065.02 262.79L1068.38 263.646C1068.19 264.797 1068 265.852 1067.9 267.003L1064.36 267.011ZM1110.28 261.832C1115.26 261.821 1119.3 265.841 1119.31 270.827C1119.32 275.813 1115.3 279.849 1110.32 279.86C1105.33 279.87 1101.29 275.851 1101.28 270.865C1101.27 265.878 1105.29 261.842 1110.28 261.832ZM1140.68 261.864C1141.55 264.643 1141.94 267.615 1141.94 270.684C1141.98 287.177 1129.35 300.725 1113.24 302.293L1113.21 287.333C1121.07 285.974 1127.1 279.058 1127.08 270.811C1127.08 269.66 1126.98 268.509 1126.69 267.455L1140.68 261.864ZM1110.23 239.201C1122.6 239.175 1133.26 246.249 1138.56 256.594L1124.57 262.09C1121.58 257.301 1116.3 254.052 1110.26 254.065C1106.14 254.073 1102.4 255.52 1099.53 258.019L1088.1 248.357C1093.84 242.688 1101.6 239.219 1110.23 239.201ZM1084.37 252.681L1095.8 262.342C1094.37 264.838 1093.51 267.717 1093.52 270.785C1093.53 279.032 1099.59 285.924 1107.45 287.25L1107.49 302.209C1091.37 300.804 1078.69 287.31 1078.65 270.721C1078.64 264.104 1080.83 257.866 1084.37 252.681Z" fill="#725F57" fill-opacity="0.08"/>
<path d="M1052.01 413.371L1146.17 413.173L1182.78 448.865L1296.9 448.625L1318.33 425.758L1319.77 427.097L1297.76 450.541L1182.02 450.784L1145.41 415.092L1052.01 415.288L1052.01 413.371Z" fill="#725F57" fill-opacity="0.08"/>
<path d="M1326.86 424.589L1355.92 424.528L1355.91 422.61L1326.86 422.671L1326.86 424.589Z" fill="#725F57" fill-opacity="0.08"/>
<path d="M1251.35 84.7083L1331.42 84.5404L1331.42 82.6225L1251.35 82.7905L1251.35 84.7083Z" fill="#725F57" fill-opacity="0.08"/>
<path d="M1148.22 61.7184L1227.52 61.552L1244.24 79.4491L1242.81 80.7946L1226.66 63.4717L1149.08 63.6344L1122.48 91.0199L1058.52 91.1541L1028.1 126.123L1019.47 126.141L1019.47 124.223L1027.23 124.207L1057.65 89.238L1121.71 89.1037L1148.22 61.7184Z" fill="#725F57" fill-opacity="0.08"/>
<path d="M778.856 254.857L822.295 254.765C827.665 254.754 831.99 259.06 832.001 264.43L832.204 361.091C832.213 365.406 835.672 368.851 839.987 368.842L926.866 368.66C931.182 368.65 934.626 365.191 934.617 360.876L934.49 299.888C934.478 294.518 938.784 290.194 944.154 290.182L995.937 290.074C1001.31 290.062 1005.63 294.369 1005.64 299.739L1005.74 347.781C1005.75 352.096 1009.21 355.541 1013.53 355.532L1157.46 355.23C1161.78 355.221 1165.22 351.762 1165.21 347.447L1165.06 274.28C1165.05 268.91 1169.35 264.586 1174.72 264.575L1272.25 264.37C1277.62 264.359 1281.94 268.665 1281.95 274.035L1282.2 391.025C1282.21 395.34 1285.67 398.785 1289.98 398.776L1355.86 398.637L1355.87 400.555L1289.99 400.693C1284.62 400.705 1280.29 396.399 1280.28 391.029L1280.04 274.039C1280.03 269.724 1276.57 266.279 1272.25 266.288L1174.73 266.492C1170.41 266.501 1166.97 269.961 1166.98 274.276L1167.13 347.443C1167.14 352.813 1162.84 357.137 1157.47 357.148L1013.53 357.45C1008.16 357.461 1003.84 353.155 1003.83 347.785L1003.72 299.743C1003.72 295.427 1000.26 291.982 995.941 291.992L944.158 292.1C939.843 292.109 936.398 295.569 936.407 299.884L936.535 360.872C936.547 366.242 932.24 370.566 926.87 370.577L839.991 370.76C834.621 370.771 830.297 366.465 830.286 361.095L830.083 264.339C830.074 260.023 826.614 256.578 822.299 256.587L778.859 256.679C774.544 256.688 771.099 260.147 771.108 264.462L771.259 336.094C771.27 341.464 766.964 345.789 761.594 345.8L722.373 345.882L722.369 343.964L761.59 343.882C765.905 343.873 769.35 340.414 769.341 336.098L769.191 264.466C769.18 259.192 773.581 254.868 778.856 254.857Z" fill="#725F57" fill-opacity="0.08"/>
<path d="M1355.9 419.158C1353.47 419.163 1351.5 421.142 1351.5 423.579C1351.51 426.015 1353.49 427.985 1355.92 427.98C1358.36 427.975 1360.33 425.996 1360.32 423.56C1360.32 421.124 1358.34 419.153 1355.9 419.158Z" fill="#725F57" fill-opacity="0.08"/>
<path d="M1331.41 79.1704C1328.97 79.1756 1327 81.1546 1327.01 83.5908C1327.01 86.0269 1328.99 87.9976 1331.43 87.9925C1333.86 87.9874 1335.83 86.0084 1335.83 83.5723C1335.82 81.1361 1333.85 79.1653 1331.41 79.1704Z" fill="#725F57" fill-opacity="0.08"/>
<path d="M1246.83 78.3889C1249.8 78.3827 1252.2 80.775 1252.21 83.7477C1252.22 86.7203 1249.83 89.1226 1246.85 89.1288C1243.88 89.1351 1241.48 86.7428 1241.47 83.7702C1241.46 80.7975 1243.95 78.395 1246.83 78.3889ZM1246.85 87.211C1248.77 87.207 1250.3 85.6695 1250.29 83.7517C1250.29 81.8338 1248.75 80.3027 1246.83 80.3068C1244.92 80.3108 1243.38 81.8483 1243.39 83.7662C1243.39 85.684 1245.03 87.2148 1246.85 87.211Z" fill="#725F57" fill-opacity="0.08"/>
<path d="M1148.88 58.2649C1146.44 58.27 1144.47 60.2491 1144.48 62.6852C1144.48 65.1214 1146.46 67.0921 1148.9 67.087C1151.33 67.0819 1153.31 65.1029 1153.3 62.6667C1153.3 60.2306 1151.32 58.2598 1148.88 58.2649Z" fill="#725F57" fill-opacity="0.08"/>
<path d="M1015.05 119.822C1018.02 119.815 1020.42 122.208 1020.43 125.18C1020.43 128.153 1018.04 130.555 1015.07 130.562C1012.1 130.568 1009.69 128.176 1009.69 125.203C1009.68 122.23 1012.07 119.828 1015.05 119.822ZM1015.06 128.644C1016.98 128.64 1018.51 127.102 1018.51 125.184C1018.51 123.267 1016.97 121.735 1015.05 121.74C1013.13 121.744 1011.6 123.281 1011.61 125.199C1011.61 127.117 1013.15 128.648 1015.06 128.644Z" fill="#725F57" fill-opacity="0.08"/>
<path d="M904.993 135.587C902.557 135.592 900.586 137.571 900.591 140.008C900.597 142.444 902.576 144.414 905.012 144.409C907.448 144.404 909.419 142.425 909.414 139.989C909.408 137.553 907.429 135.582 904.993 135.587Z" fill="#725F57" fill-opacity="0.08"/>
<path d="M726.248 135.962C723.812 135.967 721.841 137.946 721.847 140.382C721.852 142.819 723.831 144.789 726.267 144.784C728.703 144.779 730.674 142.8 730.669 140.364C730.664 137.928 728.685 135.957 726.248 135.962Z" fill="#725F57" fill-opacity="0.08"/>
<path d="M1322.44 418.27C1325.41 418.263 1327.81 420.656 1327.82 423.628C1327.82 426.601 1325.43 429.003 1322.46 429.009C1319.49 429.016 1317.08 426.623 1317.08 423.651C1317.07 420.678 1319.46 418.276 1322.44 418.27ZM1322.45 427.092C1324.37 427.088 1325.9 425.55 1325.9 423.632C1325.9 421.714 1324.36 420.183 1322.44 420.187C1320.52 420.191 1318.99 421.729 1319 423.647C1319 425.565 1320.54 427.096 1322.45 427.092Z" fill="#725F57" fill-opacity="0.08"/>
<path d="M1181.34 445.415C1178.9 445.42 1176.93 447.399 1176.94 449.835C1176.94 452.272 1178.92 454.242 1181.36 454.237C1183.79 454.232 1185.76 452.253 1185.76 449.817C1185.75 447.381 1183.77 445.41 1181.34 445.415Z" fill="#725F57" fill-opacity="0.08"/>
<path d="M1047.59 408.968C1047.87 408.968 1048.16 408.967 1048.45 409.063C1050.75 409.441 1052.58 411.259 1052.87 413.464C1053.16 414.998 1052.68 416.629 1051.63 417.782C1050.39 419.223 1048.66 419.898 1046.74 419.614C1044.44 419.236 1042.62 417.417 1042.32 415.212C1042.03 413.679 1042.51 412.048 1043.56 410.895C1044.52 409.646 1046.05 408.972 1047.59 408.968ZM1047.6 417.79C1048.56 417.788 1049.52 417.307 1050.19 416.538C1050.86 415.77 1051.15 414.81 1050.95 413.756C1050.76 412.318 1049.51 411.17 1048.07 410.885C1046.82 410.696 1045.67 411.178 1044.91 412.043C1044.24 412.811 1043.95 413.771 1044.15 414.825C1044.34 416.263 1045.59 417.411 1047.03 417.696C1047.22 417.695 1047.41 417.791 1047.6 417.79Z" fill="#725F57" fill-opacity="0.08"/>
<path d="M937.604 138.972L951.221 138.943C959.851 138.925 966.866 145.91 966.884 154.541L967.065 240.653C967.081 248.228 973.231 254.353 980.806 254.337L993.273 254.311L993.255 245.776C993.236 237.146 1000.22 230.131 1008.85 230.113L1051.14 230.024L1050.99 157.049C1050.97 148.419 1057.96 141.404 1066.59 141.386L1262.88 140.974C1271.51 140.956 1278.52 147.942 1278.54 156.572L1278.7 231.656C1278.72 239.232 1284.87 245.356 1292.44 245.34L1359.95 245.199L1359.95 247.117L1292.54 247.258C1283.91 247.276 1276.9 240.291 1276.88 231.66L1276.72 156.576C1276.7 149 1270.55 142.876 1262.98 142.892L1066.78 143.304C1059.21 143.319 1053.08 149.469 1053.1 157.045L1053.25 230.02L1066.58 229.992C1075.21 229.974 1082.23 236.959 1082.24 245.59L1082.47 354.908C1082.49 362.483 1088.64 368.608 1096.21 368.592L1122.97 368.536C1130.54 368.52 1136.67 362.37 1136.65 354.794L1136.43 250.366C1136.42 241.736 1143.4 234.721 1152.03 234.703L1186.65 234.63C1195.28 234.612 1202.29 241.598 1202.31 250.228L1202.65 409.219C1202.66 416.795 1208.81 422.919 1216.39 422.903L1273.16 422.784C1280.73 422.768 1286.86 416.618 1286.84 409.043L1286.79 383.151C1286.77 374.521 1293.75 367.506 1302.38 367.488L1360.21 367.367L1360.21 369.285L1302.39 369.406C1294.81 369.422 1288.69 375.572 1288.7 383.147L1288.76 409.039C1288.78 417.669 1281.79 424.684 1273.16 424.702L1216.49 424.821C1207.86 424.839 1200.84 417.853 1200.82 409.223L1200.49 250.328C1200.47 242.752 1194.32 236.628 1186.75 236.644L1152.13 236.717C1144.56 236.733 1138.43 242.883 1138.45 250.458L1138.67 354.886C1138.68 363.516 1131.7 370.531 1123.07 370.549L1096.31 370.605C1087.68 370.623 1080.67 363.638 1080.65 355.007L1080.42 245.689C1080.41 238.114 1074.26 231.989 1066.68 232.005L1053.35 232.033L1053.37 240.568C1053.39 249.198 1046.4 256.213 1037.77 256.231L995.482 256.32L995.773 394.694C995.791 403.324 988.805 410.339 980.175 410.357L938.461 410.444C929.831 410.463 922.816 403.477 922.798 394.847L922.294 154.73C921.988 146.1 928.974 138.99 937.604 138.972ZM993.277 256.324L980.811 256.351C972.18 256.369 965.165 249.383 965.147 240.753L964.967 154.641C964.951 147.065 958.801 140.941 951.225 140.957L937.608 140.985C930.033 141.001 923.908 147.151 923.924 154.727L924.428 394.843C924.444 402.419 930.594 408.543 938.169 408.527L979.883 408.44C987.459 408.424 993.583 402.274 993.567 394.698L993.277 256.324ZM1051.15 232.038L1008.86 232.127C1001.28 232.142 995.157 238.293 995.173 245.868L995.191 254.403L1037.48 254.314C1045.05 254.298 1051.18 248.148 1051.16 240.572L1051.15 232.038Z" fill="#725F57" fill-opacity="0.08"/>
<path d="M820.825 148.038L858.127 147.96C865.319 147.945 871.181 153.782 871.196 160.974L871.521 316.033C871.534 322.17 876.531 327.146 882.668 327.133L923.231 327.048L923.235 328.966L882.672 329.051C875.48 329.066 869.619 323.229 869.603 316.037L869.278 160.978C869.265 154.841 864.268 149.865 858.131 149.878L820.829 149.956C814.692 149.969 809.716 154.966 809.729 161.103L809.98 280.969C809.995 288.161 804.158 294.023 796.966 294.038L722.265 294.195L722.261 292.277L796.962 292.12C803.099 292.107 808.075 287.111 808.062 280.973L807.811 161.107C807.796 153.915 813.633 148.053 820.825 148.038Z" fill="#725F57" fill-opacity="0.08"/>
<path d="M1311.74 301.014C1309.3 301.019 1307.33 302.998 1307.34 305.434C1307.34 307.87 1309.32 309.841 1311.76 309.836C1314.19 309.831 1316.16 307.852 1316.16 305.415C1316.15 302.979 1314.17 301.008 1311.74 301.014Z" fill="#725F57" fill-opacity="0.08"/>
<path d="M1296.3 300.087C1299.27 300.081 1301.67 302.473 1301.68 305.446C1301.68 308.418 1299.29 310.821 1296.32 310.827C1293.35 310.833 1290.94 308.441 1290.94 305.468C1290.93 302.496 1293.32 300.093 1296.3 300.087ZM1296.32 309.005C1298.23 309.001 1299.76 307.463 1299.76 305.546C1299.76 303.628 1298.22 302.097 1296.3 302.101C1294.38 302.105 1292.85 303.642 1292.86 305.56C1292.86 307.478 1294.4 309.009 1296.32 309.005Z" fill="#725F57" fill-opacity="0.08"/>
<path d="M933.532 25.8254C933.437 26.5927 933.439 27.3599 933.441 28.127C933.442 28.8941 933.444 29.6612 933.541 30.4282L935.555 30.4239C935.652 31.095 935.75 31.7661 935.847 32.4371L933.834 33.0167C934.125 34.5503 934.512 35.9879 934.994 37.4253L937.007 36.8457C937.2 37.5165 937.489 38.0913 937.778 38.6661L935.958 39.7247C936.632 41.0658 937.402 42.4067 938.268 43.6515L940.088 42.5928C940.472 43.1673 940.857 43.646 941.338 44.2203L939.902 45.6617C940.864 46.8104 941.921 47.8631 943.169 48.9153L944.605 47.4739C945.085 47.8564 945.661 48.3347 946.238 48.717L945.187 50.5411C946.435 51.4016 947.779 52.1659 949.123 52.8343L950.174 51.0102C950.75 51.2966 951.422 51.5829 951.997 51.7735L951.426 53.7884C952.866 54.2649 954.305 54.6454 955.84 54.9299L956.411 52.9149C957.082 53.0094 957.754 53.1039 958.425 53.1984L958.43 55.2121C959.197 55.3064 959.964 55.3048 960.731 55.3032C961.498 55.3016 962.265 55.3 963.032 55.2025L963.028 53.1888C963.699 53.0915 964.37 52.9941 965.041 52.8968L965.621 54.9094C967.154 54.6185 968.592 54.2319 970.029 53.7494L969.45 51.7369C970.121 51.5437 970.695 51.2548 971.27 50.9659L972.329 52.7857C973.67 52.1116 975.011 51.3416 976.256 50.476L975.197 48.6563C975.771 48.2715 976.25 47.8869 976.824 47.4063L978.266 48.8416C979.415 47.8803 980.467 46.8233 981.519 45.5745L980.078 44.1391C980.461 43.6588 980.939 43.0825 981.321 42.5063L983.145 43.5573C984.006 42.3089 984.77 40.9648 985.438 39.6209L983.614 38.5699C983.901 37.994 984.187 37.3221 984.378 36.7463L986.393 37.3175C986.869 35.8781 987.25 34.4389 987.534 32.904L985.519 32.3329C985.614 31.6615 985.708 30.99 985.802 30.3186L987.816 30.3143C987.911 29.547 987.909 28.7799 987.907 28.0128C987.906 27.2456 987.904 26.4785 987.807 25.7115L985.793 25.7158C985.696 25.0447 985.598 24.3737 985.501 23.7026L987.513 23.123C987.223 21.5894 986.836 20.1518 986.354 18.7144L984.341 19.294C984.148 18.6232 983.859 18.0484 983.57 17.4737L985.39 16.415C984.716 15.0739 983.946 13.7331 983.08 12.4883L981.26 13.5469C980.876 12.9724 980.491 12.4938 980.01 11.9194L981.446 10.478C980.484 9.32932 979.427 8.2767 978.179 7.2245L976.743 8.6659C976.263 8.28334 975.687 7.80509 975.11 7.42273L976.161 5.59855C974.913 4.73814 973.569 3.97385 972.225 3.30543L971.174 5.12955C970.598 4.84308 969.926 4.55682 969.35 4.36625L969.922 2.35133C968.482 1.87489 967.043 1.49433 965.508 1.20987L964.937 3.22478C964.266 3.1303 963.594 3.03583 962.923 2.94135L962.918 0.927636C962.151 0.833356 961.384 0.834927 960.617 0.836536C959.85 0.838145 959.083 0.839792 958.316 0.937291L958.32 2.951C957.649 3.0483 956.978 3.14559 956.307 3.24289L955.727 1.23039C954.193 1.52128 952.756 1.90788 951.319 2.39035L951.898 4.40285C951.227 4.59605 950.653 4.88492 950.078 5.1738L949.019 3.3541C947.678 4.02816 946.337 4.79808 945.092 5.66372L946.151 7.48348C945.577 7.86825 945.098 8.25281 944.523 8.73348L943.082 7.29812C941.933 8.25945 940.881 9.3165 939.829 10.5653L941.27 12.0007C940.887 12.4809 940.409 13.0572 940.027 13.6334L938.203 12.5824C937.342 13.8308 936.578 15.1749 935.91 16.5188L937.734 17.5698C937.447 18.1458 937.161 18.8176 936.97 19.3934L934.955 18.8223C934.479 20.2616 934.098 21.7008 933.814 23.2357L935.829 23.8068C935.734 24.4783 935.64 25.1497 935.545 25.8211L933.532 25.8254ZM960.567 22.796C963.54 22.7898 965.846 25.1823 965.852 28.059C965.858 30.9358 963.466 33.3381 960.589 33.3441C957.616 33.3504 955.31 30.9579 955.304 28.0811C955.298 25.2044 957.594 22.8023 960.567 22.796ZM978.403 22.8545C978.886 24.4836 979.177 26.2091 979.181 28.0311C979.201 37.7161 971.834 45.6907 962.343 46.5736L962.324 37.7515C966.926 36.9747 970.465 32.9399 970.455 28.0494C970.454 27.3781 970.356 26.707 970.259 26.036L978.403 22.8545ZM960.539 9.46702C967.827 9.45173 974.068 13.562 977.15 19.6927L968.91 22.9703C967.178 20.0972 964.01 18.2818 960.462 18.2893C958.064 18.2943 955.861 19.162 954.138 20.604L947.413 14.9604C950.858 11.5011 955.457 9.47768 960.539 9.46702ZM945.309 17.458L952.033 23.1016C951.173 24.5418 950.697 26.2688 950.701 28.0908C950.711 32.9813 954.268 37.0013 958.872 37.7588L958.891 46.5808C949.396 45.7377 941.995 37.7942 941.975 28.1091C941.967 24.1775 943.206 20.4351 945.309 17.458Z" fill="#725F57" fill-opacity="0.08"/>
<path d="M1087.86 455.393C1087.77 456.064 1087.77 456.639 1087.77 457.311C1087.77 457.982 1087.77 458.557 1087.87 459.228L1089.6 459.225C1089.69 459.8 1089.69 460.375 1089.79 460.854L1088.07 461.337C1088.26 462.584 1088.65 463.829 1089.03 465.075L1090.76 464.592C1090.95 465.167 1091.14 465.646 1091.43 466.125L1089.9 466.991C1090.48 468.141 1091.15 469.29 1091.83 470.343L1093.36 469.477C1093.65 469.956 1094.03 470.339 1094.42 470.817L1093.17 472.067C1094.04 473.024 1094.9 473.981 1095.86 474.746L1097.11 473.497C1097.59 473.879 1097.97 474.166 1098.45 474.549L1097.59 476.085C1098.65 476.85 1099.8 477.423 1100.95 477.996L1101.81 476.46C1102.29 476.65 1102.87 476.937 1103.35 477.128L1102.87 478.855C1104.12 479.332 1105.37 479.617 1106.61 479.806L1107.09 478.079C1107.66 478.173 1108.24 478.268 1108.72 478.267L1108.72 480.185C1109.39 480.279 1109.97 480.278 1110.64 480.277C1111.31 480.275 1111.89 480.274 1112.56 480.177L1112.55 478.451C1113.13 478.354 1113.71 478.352 1114.18 478.256L1114.67 479.981C1115.91 479.786 1117.16 479.4 1118.41 479.014L1117.92 477.289C1118.5 477.096 1118.98 476.903 1119.46 476.614L1120.32 478.147C1121.47 477.569 1122.62 476.895 1123.67 476.222L1122.81 474.689C1123.29 474.401 1123.67 474.016 1124.15 473.632L1125.4 474.876C1126.35 474.011 1127.31 473.146 1128.08 472.185L1126.83 470.941C1127.21 470.461 1127.5 470.077 1127.88 469.597L1129.42 470.456C1130.18 469.4 1130.75 468.248 1131.33 467.096L1129.79 466.236C1129.98 465.756 1130.27 465.18 1130.46 464.701L1132.19 465.176C1132.66 463.929 1132.95 462.682 1133.14 461.435L1131.41 460.959C1131.5 460.383 1131.6 459.808 1131.6 459.328L1133.32 459.325C1133.42 458.653 1133.42 458.078 1133.42 457.407C1133.41 456.735 1133.41 456.16 1133.32 455.489L1131.59 455.493C1131.49 454.917 1131.49 454.342 1131.39 453.863L1133.12 453.38C1132.92 452.134 1132.54 450.888 1132.15 449.642L1130.43 450.125C1130.23 449.55 1130.04 449.071 1129.75 448.592L1131.29 447.726C1130.71 446.576 1130.03 445.427 1129.36 444.374L1127.83 445.24C1127.54 444.761 1127.16 444.378 1126.77 443.9L1128.01 442.65C1127.15 441.693 1126.28 440.736 1125.32 439.971L1124.08 441.22C1123.6 440.838 1123.22 440.551 1122.74 440.168L1123.6 438.632C1122.54 437.867 1121.39 437.294 1120.23 436.721L1119.37 438.258C1118.9 438.067 1118.32 437.78 1117.84 437.59L1118.32 435.862C1117.07 435.386 1115.82 435.101 1114.57 434.911L1114.1 436.638C1113.52 436.544 1112.95 436.449 1112.47 436.45L1112.46 434.724C1111.79 434.63 1111.22 434.631 1110.55 434.632C1109.87 434.634 1109.3 434.635 1108.63 434.732L1108.63 436.075C1108.06 436.172 1107.48 436.173 1107 436.27L1106.52 434.545C1105.27 434.739 1104.03 435.125 1102.78 435.512L1103.26 437.237C1102.69 437.43 1102.21 437.622 1101.73 437.911L1100.86 436.379C1099.71 436.956 1098.57 437.63 1097.51 438.303L1098.38 439.836C1097.9 440.125 1097.52 440.509 1097.04 440.894L1095.79 439.65C1094.83 440.515 1093.87 441.38 1093.11 442.34L1094.36 443.584C1093.98 444.064 1093.69 444.449 1093.31 444.929L1091.77 444.069C1091.01 445.125 1090.43 446.277 1089.86 447.429L1091.4 448.289C1091.2 448.769 1090.92 449.345 1090.73 449.825L1089 449.349C1088.52 450.596 1088.24 451.844 1088.05 453.091L1089.78 453.567C1089.68 454.142 1089.59 454.718 1089.59 455.197L1087.86 455.201L1087.86 455.393ZM1110.68 452.756C1113.17 452.75 1115.19 454.76 1115.2 457.253C1115.2 459.746 1113.19 461.764 1110.7 461.769C1108.2 461.775 1106.19 459.765 1106.18 457.272C1106.18 454.779 1108.28 452.761 1110.68 452.756ZM1125.83 452.82C1126.22 454.257 1126.51 455.695 1126.51 457.229C1126.53 465.476 1120.21 472.202 1112.16 472.986L1112.14 465.506C1116.07 464.827 1119.04 461.368 1119.03 457.245C1119.03 456.67 1118.93 456.094 1118.84 455.519L1125.83 452.82ZM1110.66 441.536C1116.79 441.523 1122.17 445.06 1124.77 450.233L1117.78 453.028C1116.33 450.634 1113.64 449.01 1110.67 449.016C1108.66 449.02 1106.74 449.791 1105.31 450.945L1099.64 446.162C1102.51 443.279 1106.34 441.545 1110.66 441.536ZM1097.82 448.276L1103.58 453.058C1102.82 454.306 1102.44 455.746 1102.44 457.28C1102.45 461.403 1105.43 464.849 1109.36 465.512L1109.38 472.992C1101.32 472.241 1094.98 465.542 1094.96 457.295C1094.96 453.939 1096 450.773 1097.82 448.276Z" fill="#725F57" fill-opacity="0.08"/>
<path d="M1004.14 176.134C1004.14 176.614 1004.04 177.093 1004.04 177.669C1004.05 178.244 1004.05 178.628 1004.14 179.203L1005.49 179.2C1005.49 179.679 1005.58 180.063 1005.68 180.542L1004.34 180.928C1004.53 181.887 1004.82 182.845 1005.11 183.804L1006.45 183.417C1006.65 183.8 1006.74 184.184 1006.94 184.663L1005.79 185.336C1006.17 186.199 1006.75 187.06 1007.33 187.922L1008.48 187.249C1008.76 187.632 1008.96 187.919 1009.24 188.302L1008.29 189.263C1008.96 190.028 1009.63 190.698 1010.4 191.368L1011.36 190.407C1011.65 190.694 1012.03 190.981 1012.42 191.172L1011.75 192.324C1012.51 192.898 1013.38 193.375 1014.34 193.853L1015.01 192.701C1015.39 192.892 1015.78 193.083 1016.25 193.178L1015.87 194.521C1016.83 194.807 1017.79 195.092 1018.75 195.282L1019.13 193.939C1019.52 194.034 1020 194.033 1020.38 194.128L1020.38 195.47C1020.86 195.469 1021.34 195.564 1021.92 195.563C1022.4 195.562 1022.88 195.561 1023.45 195.464L1023.45 194.121C1023.93 194.12 1024.31 194.024 1024.79 193.927L1025.18 195.269C1026.14 195.075 1027.09 194.785 1028.05 194.495L1027.67 193.154C1028.05 192.961 1028.43 192.864 1028.91 192.672L1029.59 193.821C1030.45 193.436 1031.31 192.858 1032.17 192.281L1031.5 191.132C1031.88 190.843 1032.17 190.651 1032.55 190.363L1033.51 191.319C1034.28 190.647 1034.95 189.974 1035.62 189.205L1034.66 188.249C1034.94 187.96 1035.23 187.576 1035.42 187.192L1036.57 187.861C1037.15 187.093 1037.62 186.229 1038.1 185.269L1036.95 184.6C1037.14 184.216 1037.33 183.832 1037.43 183.352L1038.77 183.733C1039.06 182.773 1039.34 181.814 1039.53 180.855L1038.19 180.474C1038.28 180.09 1038.28 179.611 1038.38 179.131L1039.72 179.128C1039.72 178.649 1039.81 178.169 1039.81 177.594C1039.81 177.018 1039.81 176.635 1039.71 176.06L1038.37 176.062C1038.37 175.583 1038.27 175.2 1038.18 174.816L1039.23 174.43C1039.04 173.472 1038.75 172.514 1038.46 171.555L1037.11 171.942C1036.92 171.558 1036.83 171.175 1036.63 170.696L1037.78 170.022C1037.4 169.16 1036.82 168.298 1036.24 167.437L1035.09 168.11C1034.8 167.727 1034.61 167.44 1034.32 167.057L1035.28 166.096C1034.61 165.33 1033.94 164.66 1033.17 163.991L1032.21 164.952C1031.92 164.665 1031.54 164.378 1031.15 164.187L1031.82 163.035C1031.05 162.461 1030.19 161.983 1029.23 161.506L1028.56 162.658C1028.18 162.467 1027.79 162.276 1027.31 162.181L1027.69 160.838C1026.73 160.552 1025.78 160.267 1024.82 160.077L1024.44 161.42C1024.05 161.325 1023.57 161.326 1023.09 161.231L1023.09 159.889C1022.61 159.89 1022.13 159.795 1021.55 159.796C1021.08 159.797 1020.6 159.798 1020.02 159.895L1020.02 161.238C1019.54 161.239 1019.16 161.335 1018.78 161.432L1018.39 160.09C1017.43 160.284 1016.47 160.574 1015.52 160.863L1015.9 162.205C1015.52 162.398 1015.14 162.494 1014.66 162.687L1013.98 161.538C1013.12 161.923 1012.26 162.5 1011.4 163.078L1012.07 164.227C1011.69 164.515 1011.4 164.708 1011.02 164.996L1010.06 164.039C1009.29 164.712 1008.62 165.385 1007.95 166.153L1008.91 167.11C1008.63 167.399 1008.34 167.783 1008.15 168.167L1007 167.498C1006.42 168.266 1005.94 169.13 1005.47 170.09L1006.62 170.759C1006.43 171.143 1006.24 171.527 1006.14 172.007L1004.8 171.626C1004.51 172.585 1004.23 173.545 1004.04 174.504L1005.38 174.885C1005.29 175.269 1005.29 175.748 1005.19 176.132L1004.14 176.134ZM1021.78 174.179C1023.69 174.175 1025.23 175.706 1025.24 177.624C1025.24 179.542 1023.71 181.08 1021.79 181.084C1019.87 181.088 1018.34 179.557 1018.33 177.639C1018.33 175.721 1019.86 174.183 1021.78 174.179ZM1033.48 174.155C1033.77 175.209 1033.96 176.359 1033.96 177.606C1033.98 183.935 1029.1 189.219 1022.96 189.711L1022.95 183.958C1026.02 183.472 1028.31 180.782 1028.3 177.618C1028.3 177.138 1028.3 176.755 1028.21 176.275L1033.48 174.155ZM1021.76 165.453C1026.55 165.443 1030.59 168.12 1032.61 172.143L1027.24 174.264C1026.09 172.444 1024.07 171.202 1021.77 171.207C1020.24 171.21 1018.8 171.788 1017.65 172.75L1013.23 169.019C1015.43 166.809 1018.4 165.46 1021.76 165.453ZM1011.8 170.652L1016.22 174.383C1015.64 175.343 1015.36 176.494 1015.36 177.645C1015.37 180.809 1017.67 183.49 1020.74 183.963L1020.75 189.716C1014.52 189.154 1009.71 183.986 1009.7 177.657C1009.6 175.068 1010.46 172.669 1011.8 170.652Z" fill="#725F57" fill-opacity="0.08"/>
<path d="M1227.24 111.034C1222.84 111.043 1219.29 114.614 1219.3 119.01C1219.31 123.405 1222.88 126.961 1227.27 126.952C1231.67 126.943 1235.23 123.372 1235.22 118.976C1235.21 114.581 1231.64 111.025 1227.24 111.034Z" fill="#725F57" fill-opacity="0.08"/>
<path d="M1201.06 110.034C1205.95 110.024 1209.99 114.043 1210 118.933C1210.01 123.824 1205.99 127.86 1201.1 127.87C1196.21 127.88 1192.17 123.861 1192.16 118.971C1192.15 114.08 1196.17 110.044 1201.06 110.034ZM1201.09 126.048C1204.93 126.04 1208.09 122.869 1208.08 119.033C1208.07 115.197 1204.9 112.04 1201.06 112.048C1197.23 112.056 1194.07 115.227 1194.08 119.063C1194.09 122.898 1197.26 126.056 1201.09 126.048Z" fill="#725F57" fill-opacity="0.08"/>
<path d="M1174.98 111.144C1170.58 111.153 1167.03 114.724 1167.04 119.119C1167.05 123.515 1170.62 127.071 1175.01 127.062C1179.41 127.052 1182.96 123.482 1182.95 119.086C1182.94 114.69 1179.37 111.134 1174.98 111.144Z" fill="#725F57" fill-opacity="0.08"/>
<path d="M1148.89 110.143C1153.78 110.133 1157.82 114.152 1157.83 119.043C1157.84 123.933 1153.82 127.969 1148.93 127.979C1144.04 127.99 1140 123.971 1139.99 119.08C1139.98 114.19 1143.91 110.154 1148.89 110.143ZM1148.93 126.157C1152.76 126.149 1155.92 122.978 1155.91 119.143C1155.9 115.307 1152.73 112.149 1148.9 112.157C1145.06 112.165 1141.9 115.336 1141.91 119.172C1141.92 123.008 1145 126.166 1148.93 126.157Z" fill="#725F57" fill-opacity="0.08"/>
<path d="M1122.81 111.253C1118.42 111.262 1114.86 114.833 1114.87 119.229C1114.88 123.624 1118.45 127.18 1122.85 127.171C1127.24 127.162 1130.8 123.591 1130.79 119.195C1130.78 114.8 1127.21 111.244 1122.81 111.253Z" fill="#725F57" fill-opacity="0.08"/>
<path d="M1096.63 110.253C1101.52 110.243 1105.56 114.262 1105.57 119.152C1105.58 124.043 1101.56 128.079 1096.67 128.089C1091.78 128.099 1087.74 124.08 1087.73 119.19C1087.72 114.299 1091.74 110.263 1096.63 110.253ZM1096.66 126.267C1100.5 126.259 1103.66 123.088 1103.65 119.252C1103.64 115.417 1100.47 112.259 1096.64 112.267C1092.8 112.275 1089.64 115.446 1089.65 119.282C1089.66 123.117 1092.83 126.275 1096.66 126.267Z" fill="#725F57" fill-opacity="0.08"/>
<path d="M1045.6 58.6734L1085.02 58.5908L1075.93 67.7196L1083.32 75.1837L1104.95 53.5625L1083.23 31.9364L1075.87 39.4315L1084.99 48.5221L1045.58 48.6048L1045.6 58.6734Z" fill="#725F57" fill-opacity="0.08"/>
<path d="M743.953 119.048L822.777 118.882L844.492 139.166L905 139.039L905.005 140.957L843.729 141.086L822.014 120.802L744.82 120.964L727.026 141.043L725.585 139.799L743.953 119.048Z" fill="#725F57" fill-opacity="0.08"/>
</svg>
