<svg width="33" height="33" viewBox="0 0 33 33" fill="none" xmlns="http://www.w3.org/2000/svg">
<path d="M26.2511 26.8124C25.7321 26.8124 25.2132 26.569 24.7872 26.0657C23.8452 24.9519 23.7342 23.0007 24.5442 21.7012L27.787 16.4993L24.5412 11.2933C23.7312 9.998 23.8422 8.04265 24.7842 6.92885C25.7291 5.81504 27.1511 5.96767 27.958 7.26298L32.4578 14.4821C33.1808 15.6413 33.1808 17.3491 32.4578 18.5124L27.958 25.7316C27.5141 26.4452 26.8841 26.8124 26.2511 26.8124Z" fill="#161084"/>
<path d="M6.75194 26.8124C6.11897 26.8124 5.489 26.4452 5.04202 25.7316L0.542225 18.5125C-0.180742 17.3533 -0.180742 15.6454 0.542225 14.4821L5.04202 7.263C5.85198 5.9718 7.27092 5.81505 8.21587 6.93298C9.15783 8.04679 9.26883 9.99801 8.45886 11.2975L5.21601 16.4993L8.46186 21.7054C9.27183 23.0007 9.16083 24.956 8.21888 26.0698C7.79289 26.5649 7.27092 26.8124 6.75194 26.8124Z" fill="#161084"/>
<path d="M14.7476 32.9218C13.5357 32.5382 12.7827 30.8757 13.0587 29.2132L17.5585 2.39936C17.8375 0.736903 19.0434 -0.298524 20.2554 0.0768706C21.4673 0.460515 22.2203 2.12298 21.9443 3.78544L17.4445 30.5993C17.1715 32.237 15.9866 33.3055 14.7476 32.9218Z" fill="#161084"/>
</svg>
