<svg width="100" height="85" viewBox="0 0 100 85" fill="none" xmlns="http://www.w3.org/2000/svg">
  <path d="M62.5477 39.0193C49.9471 58.343 53.3997 82.9203 53.3997 82.9203C53.3997 82.9203 77.282 76.1677 89.8826 56.844C102.483 37.5203 99.0307 12.943 99.0307 12.943C99.0307 12.943 75.1484 19.6956 62.5477 39.0193Z" fill="#3F3D56"/>
  <path d="M53.3326 82.6955C53.3326 82.6955 53.0259 82.6466 52.4613 82.5324C52.011 82.441 51.3909 82.3104 50.6338 82.131C43.8658 80.5352 25.8719 75.141 14.1077 60.9587C-0.616265 43.1998 0.00374079 18.3889 0.00374079 18.3889C0.00374079 18.3889 22.5173 22.0471 37.3522 37.9948C37.9951 38.6801 38.6206 39.3904 39.2286 40.1258C52.0403 55.5775 53.2347 76.368 53.3293 81.5077C53.3424 82.2778 53.3326 82.6955 53.3326 82.6955Z" fill="#726FBD"/>
  <path d="M44.2514 39.0193C56.8521 58.343 53.3995 82.9203 53.3995 82.9203C53.3995 82.9203 29.5172 76.1677 16.9165 56.844C4.31585 37.5203 7.76843 12.943 7.76843 12.943C7.76843 12.943 31.6508 19.6956 44.2514 39.0193Z" stroke="#3F3D56" stroke-width="2" stroke-miterlimit="10"/>
  <path opacity="0.1" d="M53.3292 81.5077C52.9964 81.9091 52.7027 82.2517 52.4612 82.5324C51.926 83.1426 51.6225 83.4624 51.6225 83.4624C51.6225 83.4624 51.2538 82.999 50.6337 82.131C47.2301 77.3861 36.2817 60.5149 37.1269 41.0265C37.1726 40.005 37.2477 38.9945 37.3521 37.9948C37.995 38.6801 38.6204 39.3904 39.2285 40.1258C52.0402 55.5775 53.2346 76.368 53.3292 81.5077Z" fill="black"/>
  <path d="M72.0127 42.4358C71.0168 65.4833 53.9081 83.4626 53.9081 83.4626C53.9081 83.4626 38.4142 64.0744 39.4102 41.0268C40.4061 17.9793 57.5149 0 57.5149 0C57.5149 0 73.0087 19.3882 72.0127 42.4358Z" fill="#726FBD"/>
  <path d="M53.9083 82.8099L57.6697 0.940025" stroke="#3F3D56" stroke-width="2" stroke-miterlimit="10"/>
</svg>
