<svg width="85" height="123" viewBox="0 0 85 123" fill="none" xmlns="http://www.w3.org/2000/svg">
  <style>

  #folha-media {
    transform-origin:left;
    transform-box: fill-box;
    animation: movimento-folha-media 1.5s infinite ease alternate-reverse 2s;
  }

  #folha-grande {
    transform-origin:right;
    transform-box: fill-box;
    animation: movimento-folha-media 2.5s infinite ease alternate-reverse 2s;
  }

    @keyframes movimento-folha-media {
      from{
        transform: rotateZ(0deg);
      }
      to{
        transform: rotateZ(10deg);
      }
    }

    @keyframes movimento-folha-grande {
      from{
        transform: rotateZ(0deg);
      }
      to{
        transform: rotateZ(10deg);
      }
    }
 


  </style>

  <g id="plant">
    <path id="Vector" opacity="0.1" d="M49.507 122.268C69.1092 122.268 85 119.752 85 116.648C85 113.544 69.1092 111.028 49.507 111.028C29.9048 111.028 14.0141 113.544 14.0141 116.648C14.0141 119.752 29.9048 122.268 49.507 122.268Z" fill="#6C63FF"/>
    <path id="Vector_2" d="M50.6901 6.91548H48.3239V58.3802H50.6901V6.91548Z" fill="#535461"/>
    <path id="Vector_3" d="M64.8804 58.3256L64.7368 60.6456L64.5305 63.9287L64.4458 65.293L64.2432 68.5761L64.1549 69.9404L63.9486 73.2235L61.6208 110.457C61.5143 112.055 60.7982 113.553 59.6178 114.648C58.4373 115.743 56.8808 116.352 55.2637 116.352H43.1572C41.5373 116.351 39.9786 115.739 38.7988 114.64C37.619 113.54 36.9069 112.037 36.8075 110.435L34.4724 73.1979L34.2698 69.9149L34.1851 68.5506L33.9752 65.2675L33.8905 63.9032L33.6879 60.6201L33.5405 58.3001C33.5151 57.8554 33.5812 57.4102 33.7349 56.9916C33.8887 56.573 34.1268 56.1898 34.4349 55.8653C34.7429 55.5408 35.1144 55.2817 35.5267 55.1039C35.939 54.9261 36.3836 54.8332 36.8333 54.831H61.5914C62.0431 54.8335 62.4895 54.9275 62.9032 55.1071C63.317 55.2867 63.6893 55.5481 63.9973 55.8754C64.3053 56.2027 64.5425 56.5888 64.6944 57.0102C64.8463 57.4315 64.9095 57.8792 64.8804 58.3256Z" fill="#565661"/>
    <path id="Vector_4" d="M64.8873 60.7464L64.683 63.7042H34.3311L34.1268 60.7464H64.8873Z" fill="#9D9CB5"/>
    <path id="Vector_5" d="M64.2958 65.4789L64.0952 68.4366H34.331L34.1268 65.4789H64.2958Z" fill="#9D9CB5"/>
    <path id="Vector_6" d="M64.2958 70.2112L64.0916 73.169H34.9225L34.7183 70.2112H64.2958Z" fill="#9D9CB5"/>

    <g id="folha-grande">
      <path id="Vector_7" d="M30.5333 26.1479C43.9282 35.9506 49.507 51.2816 49.507 51.2816C49.507 51.2816 33.3686 50.7214 19.97 40.9187C6.57144 31.116 1 15.7887 1 15.7887C1 15.7887 17.1421 16.349 30.5333 26.1479Z" fill="#6C63FF"/>
      <path id="Vector_8" d="M1 15.7887C1 15.7887 17.751 25.1944 23.128 32.9823C28.505 40.7703 49.507 51.2816 49.507 51.2816" stroke="#535461" stroke-width="2" stroke-miterlimit="10"/>
    </g>

    <g id="folha-pequena">
      <path id="Vector_9" d="M39.0856 6.69851C46.4428 12.0858 49.507 20.5211 49.507 20.5211C49.507 20.5211 40.6251 20.2099 33.2865 14.8226C25.9479 9.43528 22.8873 1 22.8873 1C22.8873 1 31.7322 1.30742 39.0856 6.69851Z" fill="#6C63FF"/>
      <path id="Vector_10" d="M22.8873 1C22.8873 1 32.0811 6.17364 35.0286 10.455C37.976 14.7364 49.507 20.5211 49.507 20.5211" stroke="#535461" stroke-width="2" stroke-miterlimit="10"/>
    </g>

    <g id="folha-media">
      <path id="Vector_11" d="M60.1938 19.7507C51.8614 29.0596 50.0986 41.2254 50.0986 41.2254C50.0986 41.2254 61.8472 38.2943 70.1723 28.9817C78.4974 19.6691 80.2676 7.50706 80.2676 7.50706C80.2676 7.50706 68.5263 10.4418 60.1938 19.7507Z" fill="#6C63FF"/>
      <path id="Vector_12" d="M80.2676 7.50706C80.2676 7.50706 69.4158 17.0507 66.6572 23.6259C63.8987 30.2011 50.0986 41.2254 50.0986 41.2254" stroke="#535461" stroke-width="2" stroke-miterlimit="10"/>
    </g>
  </g>
</svg>
