<svg width="80" height="171" viewBox="0 0 80 171" fill="none" xmlns="http://www.w3.org/2000/svg">
  <style>
    #right{
      transform-origin:bottom;
      transform-box: fill-box;
    }

    #right{
      animation: shakeRight 1s infinite ease-in-out alternate-reverse 2s;
    }
  
    @keyframes shakeRight {
      from{
        transform: rotateZ(-5deg);
      }
      to {
        transform: rotateZ(0deg);
      }
    }
  
  </style>
  <g id="left">
    <path id="a" d="M14.5242 151.519C22.5456 151.519 29.0483 136.519 29.0483 118.016C29.0483 99.5123 22.5456 84.5124 14.5242 84.5124C6.50268 84.5124 0 99.5123 0 118.016C0 136.519 6.50268 151.519 14.5242 151.519Z" fill="white" fill-opacity="0.1"/>
    <path id="b" d="M14.9771 172.647C20.8487 133.232 15.0362 93.9591 14.9768 93.5673L13.8346 93.7837C13.8938 94.1736 19.6729 133.24 13.8344 172.434L14.9771 172.647Z" fill="#E6E6E6"/>
    <path id="c" d="M3.74082 110.77L3.19824 111.908L16.3609 119.809L16.9035 118.671L3.74082 110.77Z" fill="#E6E6E6"/>
    <path id="e" d="M30.253 114.728L17.0919 122.633L17.6348 123.771L30.7959 115.866L30.253 114.728Z" fill="#E6E6E6"/>
  </g>

  <g id="right">
  <path id="d" d="M39.5426 67L39 68.1383L52.1627 76.0391L52.7052 74.9008L39.5426 67Z" fill="#E6E6E6"/>
  <path id="f" d="M65.1611 56L52 63.9052L52.5429 65.0434L65.704 57.1381L65.1611 56Z" fill="#E6E6E6"/>
  <path id="g" d="M51.4897 130.391C67.2356 130.391 80.0001 101.202 80.0001 65.1954C80.0001 29.189 67.2356 0 51.4897 0C35.7439 0 22.9794 29.189 22.9794 65.1954C22.9794 101.202 35.7439 130.391 51.4897 130.391Z" fill="white" fill-opacity="0.64"/>
  <path id="h" d="M48.3636 172.043C60.1792 95.3185 48.4828 18.8731 48.3634 18.1099L47.1867 18.3256C47.3059 19.0869 58.9679 95.3267 47.1864 171.831L48.3636 172.043Z" fill="white" fill-opacity="0.84"/>
  </g>
</svg>
